<?xml version="1.0" standalone="no"?>
<!DOCTYPE svg PUBLIC "-//W3C//DTD SVG 20010904//EN"
 "http://www.w3.org/TR/2001/REC-SVG-20010904/DTD/svg10.dtd">
<svg version="1.0" xmlns="http://www.w3.org/2000/svg"
 width="1952.000000pt" height="1098.000000pt" viewBox="0 0 1952.000000 1098.000000"
 preserveAspectRatio="xMidYMid meet">
<metadata>
Created by potrace 1.16, written by Peter Selinger 2001-2019
</metadata>
<g transform="translate(0.000000,1098.000000) scale(0.100000,-0.100000)"
fill="#000000" stroke="none">
<path d="M1240 10683 c-1 -303 -6 -430 -21 -470 -9 -24 -14 -24 -179 -7 -41 4
-79 7 -83 6 -26 -7 -485 -1 -543 7 -38 6 -147 12 -242 16 l-172 5 0 -22 c0
-23 1 -23 158 -26 86 -2 171 -5 187 -7 125 -16 311 -25 480 -23 110 2 265 -1
345 -6 80 -6 264 -10 409 -9 l263 1 -5 -40 c-3 -22 -7 -41 -9 -43 -1 -2 -109
-7 -238 -10 -129 -4 -271 -9 -315 -11 -44 -1 -132 1 -195 7 -198 17 -896 32
-1007 22 -58 -5 -73 -9 -73 -22 0 -14 23 -16 203 -16 315 0 689 -8 771 -17 74
-8 171 -16 213 -17 22 -1 22 -2 23 -237 0 -131 3 -240 5 -244 9 -15 15 -130
20 -385 4 -269 13 -474 21 -487 7 -11 6 -532 -1 -683 -8 -164 -17 -205 -48
-206 -12 0 -38 -2 -57 -3 -152 -15 -238 -18 -465 -15 -428 5 -496 4 -592 -10
-82 -12 -93 -16 -93 -34 0 -19 4 -19 63 -12 112 14 290 20 392 13 146 -10 538
-9 571 1 91 29 668 35 712 7 11 -7 46 -85 41 -90 -2 -2 -87 -6 -189 -9 -102
-3 -232 -10 -290 -16 -283 -29 -768 -43 -906 -26 -16 2 -111 7 -211 11 -183 7
-183 7 -183 -15 0 -19 6 -21 58 -22 31 -1 66 -1 77 0 11 1 82 -5 157 -12 205
-20 495 -21 722 -2 133 11 202 13 209 6 6 -6 13 -125 18 -286 4 -152 10 -300
14 -328 15 -127 17 -182 16 -332 -1 -201 -6 -225 -50 -240 -86 -29 -167 -163
-211 -350 -19 -82 -132 -369 -149 -380 -15 -9 -203 -15 -456 -15 -296 0 -405
-12 -405 -43 0 -18 5 -19 63 -13 108 12 767 16 767 4 0 -5 -8 -23 -17 -39 -19
-32 -15 -31 -248 -50 -142 -11 -370 -13 -385 -4 -4 3 -46 0 -94 -7 -79 -10
-86 -13 -86 -33 0 -21 2 -22 57 -13 32 6 132 7 223 4 96 -4 198 -2 245 4 79
10 243 16 250 8 2 -2 1 -19 -4 -38 -13 -62 -1 -91 49 -117 38 -20 54 -22 100
-17 76 10 93 7 134 -17 27 -16 48 -20 89 -17 l54 3 4 -135 c6 -207 5 -352 -3
-381 -5 -15 -18 -30 -30 -33 -13 -4 -156 -11 -318 -16 -286 -8 -421 -22 -665
-65 -44 -8 -104 -18 -132 -21 l-53 -7 0 -535 0 -535 172 7 c95 4 187 9 203 11
148 20 412 36 490 30 116 -10 925 -12 1120 -4 83 4 242 10 355 13 279 9 644
25 765 35 55 4 199 9 320 10 121 1 270 6 330 11 61 5 170 9 244 9 74 1 155 3
180 6 25 3 98 10 161 15 63 6 149 15 190 20 41 5 138 17 215 25 77 9 156 18
175 20 19 3 100 7 180 10 187 6 376 23 745 65 44 5 114 11 155 14 41 3 143 10
225 16 83 6 296 15 475 20 179 5 336 11 350 14 81 14 320 41 465 51 76 6 229
25 361 45 33 6 94 10 134 10 84 0 271 15 378 31 52 7 77 7 86 0 7 -6 16 -8 20
-4 3 4 15 7 25 8 20 2 31 -26 46 -124 4 -25 16 -69 26 -98 10 -29 16 -53 14
-53 -2 0 2 -21 10 -47 7 -27 16 -66 20 -88 6 -37 35 -132 55 -180 34 -86 49
-114 77 -149 43 -55 53 -66 97 -102 l38 -32 -49 5 c-26 3 -66 9 -88 15 -149
36 -176 31 -234 -39 -33 -39 -38 -62 -21 -93 8 -15 5 -24 -15 -45 -24 -23 -25
-30 -19 -83 3 -33 1 -75 -5 -99 -15 -54 -1 -88 44 -110 38 -18 41 -25 23 -45
-22 -24 -48 -79 -43 -89 3 -5 1 -18 -5 -28 -20 -38 -15 -218 9 -309 26 -101
50 -147 98 -194 84 -81 147 -106 343 -137 36 -6 119 -20 185 -31 66 -12 152
-25 190 -30 39 -5 90 -14 115 -19 25 -6 91 -15 147 -22 56 -7 107 -16 114 -20
10 -6 12 -79 10 -326 -1 -175 -5 -320 -8 -323 -6 -6 -24 -9 -154 -18 -58 -5
-109 -11 -115 -14 -5 -3 -48 -9 -95 -12 -47 -3 -105 -10 -130 -15 -24 -5 -105
-15 -179 -21 -74 -6 -141 -13 -148 -15 -7 -3 -54 -7 -105 -11 -102 -6 -227
-18 -360 -34 -84 -9 -471 -23 -567 -19 -140 5 -648 3 -720 -3 -47 -4 -146 -10
-220 -13 -74 -4 -157 -10 -185 -16 -27 -5 -124 -14 -215 -19 -91 -6 -223 -15
-295 -20 -71 -6 -298 -12 -503 -14 -205 -3 -376 -7 -381 -10 -15 -10 -425 -15
-448 -6 -20 8 -21 15 -22 128 l-1 120 48 10 c26 6 83 13 127 17 102 8 234 38
277 65 18 11 39 20 45 20 19 0 215 91 238 110 11 9 46 29 79 44 32 15 73 38
91 51 17 14 36 25 42 25 18 0 198 188 195 203 -2 5 7 21 18 37 11 15 20 36 20
45 0 9 5 26 12 38 15 29 38 169 44 279 5 78 4 88 -15 107 -12 12 -21 27 -21
34 0 7 -4 17 -8 23 -5 5 -17 28 -26 52 -49 127 -219 278 -383 341 -69 26 -102
32 -195 37 -62 3 -185 14 -273 24 -240 29 -421 33 -598 16 -84 -8 -228 -18
-322 -21 -149 -5 -199 -9 -323 -30 -76 -13 -164 -34 -227 -55 -38 -13 -74 -23
-78 -22 -5 1 -20 -4 -35 -12 -115 -60 -194 -96 -211 -96 -12 0 -21 -3 -21 -8
0 -4 -23 -25 -51 -47 -72 -56 -93 -80 -124 -140 -23 -46 -26 -65 -28 -161 0
-60 0 -122 2 -139 1 -16 -1 -51 -5 -76 -4 -32 0 -68 14 -120 11 -41 23 -94 26
-118 13 -87 30 -123 85 -177 29 -30 57 -54 60 -54 4 0 16 -8 27 -18 25 -23 84
-56 220 -126 97 -49 128 -59 244 -81 85 -16 168 -25 232 -25 93 0 357 -26 368
-37 7 -6 17 -202 12 -236 -4 -23 -9 -27 -36 -27 -17 0 -53 -7 -81 -16 -40 -12
-86 -14 -230 -10 -98 3 -260 6 -360 5 -571 -1 -799 2 -870 12 -81 11 -422 6
-614 -9 -52 -4 -207 -4 -345 1 -447 15 -480 15 -516 6 -132 -33 -937 -56
-1247 -35 -130 9 -133 8 -133 -12 0 -18 9 -21 108 -28 270 -21 1185 2 1231 30
20 13 218 17 313 7 137 -15 530 -16 743 -1 167 11 346 8 575 -8 144 -10 1304
-8 1386 3 59 7 61 7 68 -16 7 -28 -2 -727 -10 -740 -3 -5 6 -9 20 -9 25 0 30
8 29 46 0 6 6 11 15 10 8 0 17 5 19 12 3 6 -2 12 -10 12 -18 0 -27 21 -27 67
0 26 5 36 20 40 24 6 26 21 5 29 -18 7 -20 45 -3 42 7 -2 13 4 13 12 0 8 -6
14 -13 12 -17 -3 -15 35 3 42 19 7 19 26 0 26 -21 0 -19 36 3 45 16 6 16 7 0
19 -22 16 -23 35 -3 42 19 8 20 34 1 34 -18 0 -14 28 5 41 12 8 11 11 -3 23
-22 16 -23 32 -3 40 19 7 19 26 0 26 -8 0 -15 9 -15 19 0 10 7 21 15 25 19 7
19 26 0 26 -8 0 -15 9 -15 20 0 11 7 20 15 20 19 0 19 19 0 26 -8 4 -15 15
-15 25 0 10 7 19 15 19 19 0 19 5 -1 35 -14 21 -14 24 1 33 15 8 15 12 4 30
-10 16 -11 24 -2 33 9 9 8 17 -4 35 -14 22 -14 24 1 30 20 8 21 34 1 34 -8 0
-15 9 -15 20 0 17 7 20 53 21 143 2 181 -3 185 -25 2 -9 9 -15 15 -13 7 3 11
10 9 16 -1 6 9 11 23 11 15 0 24 -5 23 -12 -2 -7 3 -12 10 -10 17 3 15 -35 -3
-42 -22 -8 -19 -26 4 -26 25 0 24 -37 -1 -43 -22 -6 -24 -27 -3 -27 8 0 15 -9
15 -20 0 -11 -7 -20 -15 -20 -8 0 -15 -7 -15 -15 0 -8 7 -15 15 -15 20 0 19
-36 -1 -44 -8 -3 -12 -10 -9 -16 4 -6 11 -8 16 -5 5 4 9 -5 9 -19 0 -14 -5
-25 -11 -24 -6 2 -14 -3 -16 -9 -3 -7 2 -13 11 -13 22 0 20 -36 -1 -45 -17 -6
-17 -7 0 -19 21 -16 22 -42 1 -50 -8 -3 -12 -11 -9 -17 4 -6 13 -8 21 -5 10 4
14 -3 14 -23 0 -25 -3 -28 -21 -24 -16 4 -20 2 -17 -8 3 -8 12 -13 22 -11 11
2 16 -4 16 -21 0 -17 -5 -24 -18 -23 -9 0 -17 -6 -17 -14 0 -8 7 -14 16 -12
13 2 16 -9 18 -57 1 -56 0 -59 -20 -54 -16 4 -20 2 -17 -8 3 -8 12 -13 21 -13
11 1 15 -7 15 -26 -1 -22 -5 -26 -21 -22 -14 4 -18 1 -15 -9 3 -8 12 -13 22
-11 14 3 16 -11 16 -113 0 -108 1 -115 20 -115 12 0 20 7 21 18 2 23 1 488 -1
593 -1 46 -1 102 -1 124 l1 40 147 0 c82 0 285 5 453 12 168 6 422 14 565 17
143 4 274 8 290 10 17 2 68 7 115 11 47 3 135 11 195 16 61 5 178 14 262 19
84 5 194 12 245 17 51 4 149 7 218 7 273 -2 642 -3 775 -3 77 0 194 6 260 15
110 13 230 24 615 54 74 6 155 15 180 21 25 5 86 13 135 19 50 5 131 14 180
20 86 10 153 7 185 -10 12 -7 14 -29 12 -128 l-3 -119 -75 -7 c-219 -18 -392
-131 -368 -239 17 -80 155 -154 331 -178 117 -15 280 -19 348 -8 33 5 106 16
162 24 56 8 126 25 155 36 29 12 60 22 68 24 19 3 70 99 65 124 -14 72 -114
161 -215 190 -25 7 -63 19 -85 27 -23 8 -52 14 -65 14 l-25 0 7 82 c3 46 7
114 7 152 l1 68 108 -8 c144 -10 220 -4 427 36 78 15 273 30 460 35 194 5 255
10 375 30 173 30 407 58 585 71 317 23 1069 33 1117 15 17 -6 47 -5 92 5 37 8
87 13 111 12 l43 -1 2 -91 c2 -50 3 -109 4 -130 1 -37 -1 -40 -39 -52 -22 -8
-52 -20 -66 -28 -14 -9 -46 -20 -71 -25 -26 -6 -69 -25 -96 -42 -83 -51 -105
-143 -57 -234 30 -55 52 -75 120 -108 77 -37 166 -51 315 -51 144 1 182 5 300
30 114 25 153 47 182 102 49 91 53 116 29 192 -18 55 -31 77 -70 113 -26 24
-56 47 -67 50 -10 3 -40 11 -66 18 l-47 13 6 101 c3 55 8 118 12 139 l6 39 73
-2 c86 -3 334 17 377 29 17 5 75 12 130 15 270 13 589 36 627 44 172 38 253
43 803 46 291 2 508 8 570 15 55 7 186 14 292 15 l192 4 0 -42 c0 -23 3 -85 6
-138 l7 -96 -63 -15 c-115 -29 -297 -124 -342 -181 -22 -26 -33 -53 -38 -94
-8 -54 -6 -61 20 -98 34 -48 133 -100 231 -122 82 -18 410 -29 465 -15 22 6
108 33 190 62 135 46 154 56 194 96 43 45 64 95 50 124 -4 8 -13 28 -20 45 -8
16 -34 50 -59 76 -41 42 -52 48 -125 64 -44 9 -97 21 -117 26 l-38 10 -1 67
c-2 202 -2 272 2 276 2 2 74 6 159 10 85 3 223 10 305 16 235 16 532 30 745
36 282 7 641 39 782 69 165 35 299 57 324 55 59 -7 74 -1 74 28 0 27 -2 28
-42 26 -24 0 -68 -6 -98 -12 -229 -48 -371 -73 -465 -82 -266 -27 -377 -36
-431 -34 -33 2 -160 -3 -284 -11 -124 -8 -322 -19 -440 -25 -118 -5 -262 -13
-320 -16 -103 -6 -257 -6 -296 0 -17 3 -19 12 -18 97 2 130 12 261 22 271 9 9
57 16 162 22 41 3 98 12 125 21 28 8 61 15 75 15 14 0 35 6 46 14 11 8 38 18
60 22 21 4 55 15 74 25 19 10 64 32 100 48 74 35 175 137 164 165 -4 10 -1 16
10 16 8 0 23 14 31 31 9 16 24 38 33 48 54 57 93 173 91 271 -1 64 -7 86 -37
150 -20 41 -54 94 -75 117 -37 40 -38 42 -20 61 26 28 113 149 113 158 0 4 6
15 13 23 7 9 24 49 36 89 13 40 27 74 31 77 4 3 11 26 16 52 8 49 9 56 19 173
7 93 29 156 77 230 62 93 93 164 115 254 10 44 23 81 29 83 7 2 20 -4 30 -14
9 -10 25 -19 33 -19 9 -1 35 -6 58 -12 40 -9 44 -8 80 23 21 18 47 50 58 71
21 42 78 104 96 104 6 0 25 11 41 25 29 25 33 25 136 19 86 -5 131 -2 232 16
69 12 157 23 195 24 39 2 82 3 98 4 l27 2 0 679 0 679 -62 7 c-35 3 -99 1
-143 -4 -88 -11 -317 -6 -407 9 -38 6 -110 4 -215 -4 -142 -12 -328 -12 -361
-1 -15 6 -8 40 25 110 19 42 23 66 23 152 0 69 4 103 12 105 6 2 80 3 164 0
114 -3 180 1 261 14 83 14 177 18 403 20 291 2 295 2 298 23 3 20 -1 21 -115
21 -65 1 -158 2 -208 2 -114 2 -325 -11 -390 -24 -53 -10 -383 -12 -409 -2
-14 5 -32 41 -24 49 1 2 83 6 181 9 98 3 187 11 198 16 31 17 588 13 732 -5
34 -5 37 -3 37 19 0 33 -21 36 -345 41 -233 4 -344 -1 -480 -20 -27 -4 -260
-6 -327 -3 -22 1 -28 7 -34 32 -9 44 -81 134 -132 167 -24 15 -60 30 -81 34
-51 8 -111 61 -111 98 0 16 -7 30 -16 34 -12 4 -14 16 -8 62 4 31 10 58 14 61
4 3 10 19 13 35 25 124 37 213 42 304 14 262 32 467 51 574 7 45 14 116 14
157 1 41 5 107 11 145 5 39 13 91 16 117 l5 47 122 -3 c66 -2 164 0 216 4 52
5 151 11 220 14 149 8 208 12 400 27 80 6 179 12 220 14 209 5 190 2 190 31 0
19 -4 24 -18 20 -9 -2 -84 -7 -167 -11 -82 -3 -168 -8 -190 -10 -36 -5 -238
-18 -455 -30 -47 -3 -125 -8 -175 -12 -133 -9 -350 -6 -504 8 -132 12 -358 15
-686 10 -89 -2 -185 0 -215 4 l-55 7 -3 42 c-2 29 2 43 10 44 7 0 45 4 83 7
68 6 423 8 695 4 251 -4 974 10 1095 21 66 6 167 15 225 21 112 10 336 12 351
3 5 -3 9 6 9 19 0 22 -5 25 -42 29 -70 7 -314 0 -376 -12 -106 -19 -336 -29
-636 -29 l-298 0 6 37 c23 120 33 274 29 447 -2 105 -5 201 -5 215 0 33 9 137
22 235 14 114 20 212 26 435 2 107 6 206 8 220 2 14 4 34 5 45 1 19 9 20 246
23 135 2 284 3 333 4 278 4 406 -2 475 -23 53 -16 81 -19 121 -13 28 4 59 7
69 5 12 -2 17 5 17 22 0 24 -4 25 -72 30 -40 4 -89 8 -108 11 -27 5 -453 19
-520 18 -8 0 -80 -4 -160 -10 -174 -10 -304 -7 -615 15 -112 8 -1686 7 -2195
-1 -220 -4 -474 -2 -615 4 -132 6 -292 13 -355 15 -63 3 -173 9 -245 15 -144
10 -325 18 -605 26 -102 2 -257 8 -345 12 -161 8 -779 6 -800 -2 -10 -4 -550
7 -965 19 -207 6 -411 23 -424 35 -5 5 -6 19 -2 33 5 23 9 24 138 32 180 11
388 9 489 -6 89 -12 360 -18 1079 -22 245 -2 451 -6 458 -10 13 -9 730 -18
1627 -21 371 -1 616 -6 680 -14 278 -33 747 -49 870 -30 71 11 98 13 409 28
132 7 260 9 285 5 46 -7 1029 -27 1131 -23 140 5 637 1 743 -6 l119 -8 -4 23
c-2 18 -10 24 -29 25 -14 1 -64 4 -112 8 -47 4 -238 6 -424 5 -412 -2 -665 1
-676 8 -5 3 -6 15 -3 27 4 11 9 53 12 91 2 39 11 131 19 205 21 200 25 244 31
363 6 104 5 107 -15 107 -22 0 -21 7 -26 -135 -1 -22 -5 -67 -9 -100 -4 -33
-9 -85 -11 -115 -3 -30 -7 -66 -10 -80 -3 -14 -9 -90 -15 -170 -13 -193 -11
-184 -49 -188 l-33 -3 7 58 c3 32 12 114 20 183 8 69 17 208 19 310 3 102 8
197 12 213 6 24 4 27 -19 27 -23 0 -25 -4 -31 -72 -4 -40 -9 -157 -11 -259 -2
-103 -9 -207 -14 -230 -6 -24 -13 -87 -16 -139 l-6 -95 -127 2 c-70 1 -206 5
-302 9 -280 12 -644 0 -845 -26 -108 -14 -876 8 -894 26 -2 2 3 45 12 96 27
159 48 348 52 478 2 69 7 144 11 168 6 40 6 42 -20 42 -14 0 -25 -3 -24 -7 1
-5 -1 -46 -5 -93 -4 -47 -8 -132 -11 -190 -5 -110 -20 -252 -36 -333 -6 -27
-10 -61 -10 -77 0 -16 -5 -39 -11 -52 -9 -20 -16 -23 -50 -20 -31 3 -39 8 -35
21 3 9 8 36 11 61 3 24 9 60 15 80 8 33 12 65 25 235 3 39 8 88 11 110 6 37
12 124 17 223 2 38 0 42 -20 42 -21 0 -23 -5 -23 -52 -1 -64 -8 -143 -20 -224
-6 -33 -14 -123 -20 -200 -5 -76 -17 -170 -25 -209 -8 -38 -15 -73 -15 -77 0
-11 -776 -13 -1175 -3 -265 7 -829 15 -1285 20 -412 4 -691 12 -699 20 -6 7
12 164 39 335 25 161 28 189 36 303 5 83 4 87 -15 87 -15 0 -21 -7 -22 -22 0
-44 -9 -153 -15 -188 -3 -19 -14 -91 -25 -160 -19 -115 -36 -266 -38 -332 -1
-26 -4 -28 -42 -28 l-40 0 5 43 c3 23 10 85 16 137 6 52 17 120 25 151 9 32
17 129 20 228 6 165 5 171 -14 171 -16 0 -20 -9 -25 -57 -3 -32 -5 -96 -5
-143 0 -49 -9 -130 -21 -190 -12 -58 -24 -145 -27 -194 -3 -49 -9 -101 -12
-115 -11 -41 -25 -41 -371 -14 -110 8 -289 9 -477 2 -61 -2 -114 -2 -116 1 -6
6 8 285 22 430 6 58 13 144 16 193 5 86 5 87 -19 87 -23 0 -23 -1 -30 -142
-17 -355 -16 -342 -38 -359 -24 -18 -77 -17 -153 5 -175 49 -170 48 -283 66
-114 19 -463 -16 -565 -55 -20 -8 -49 -15 -64 -15 -15 0 -40 -4 -57 -10 -17
-5 -93 -19 -170 -31 -106 -16 -159 -20 -225 -14 -143 12 -153 13 -246 49 -126
48 -213 61 -400 60 -127 -1 -176 -6 -235 -22 -41 -11 -94 -23 -117 -27 l-42
-7 5 34 c12 86 25 220 29 283 2 39 5 77 6 85 2 8 -1 34 -5 58 -11 54 -36 58
-36 5 -1 -57 -13 -234 -25 -338 -1 -16 -6 -68 -9 -115 -12 -148 -12 -148 -54
-159 -20 -5 -80 -12 -132 -14 -53 -3 -102 -7 -110 -9 -12 -2 -14 21 -12 142 2
80 10 183 18 230 9 47 18 105 21 130 2 25 8 56 13 70 5 14 11 42 15 63 5 34 4
37 -19 37 -21 0 -26 -6 -31 -37 -3 -21 -12 -78 -20 -128 -27 -168 -35 -260
-40 -485 -4 -159 -14 -292 -35 -455 -16 -126 -32 -271 -36 -320 l-7 -91 -96
-2 c-86 -2 -132 -7 -226 -27 -59 -13 -260 -76 -287 -91 -14 -8 -36 -14 -48
-14 -12 0 -30 -5 -41 -11 -11 -5 -43 -14 -72 -20 -29 -5 -72 -14 -97 -19 -234
-53 -377 -63 -565 -40 -49 6 -124 15 -165 20 -73 8 -159 28 -210 48 -14 5 -64
18 -110 27 -166 34 -643 16 -751 -29 -19 -7 -58 -17 -86 -21 -43 -5 -53 -4
-53 7 0 8 3 17 6 21 3 3 8 68 10 144 3 76 7 170 10 208 2 39 5 84 5 100 4 133
33 503 41 513 6 6 8 26 4 42 -3 16 -1 54 5 82 6 29 12 69 14 88 2 19 9 78 15
130 16 134 29 278 30 323 0 33 -3 37 -26 37 -24 0 -25 -2 -23 -52 1 -59 -18
-302 -27 -332 -4 -10 -7 -39 -8 -65 -2 -25 -9 -85 -16 -133 l-14 -86 -55 -8
c-53 -7 -262 -7 -269 1 -2 1 1 29 7 61 5 33 13 113 16 179 3 67 12 161 20 210
8 50 15 120 15 158 0 60 -2 67 -20 67 -18 0 -20 -7 -20 -67 0 -38 -7 -113 -14
-168 -8 -55 -17 -145 -20 -200 -7 -108 -14 -174 -22 -217 -5 -25 -10 -28 -46
-28 -37 0 -40 2 -34 23 3 12 12 112 21 221 8 109 17 201 19 205 2 3 7 57 11
119 l7 112 -25 0 c-25 0 -25 -2 -25 -72 0 -40 -5 -116 -11 -168 -10 -95 -15
-149 -27 -332 -4 -53 -10 -101 -13 -106 -8 -13 -421 -24 -421 -11 0 5 6 38 14
72 43 187 53 250 61 412 3 55 10 114 14 130 21 73 21 75 -9 75 -33 0 -34 -4
-50 -238 -9 -144 -28 -265 -55 -357 -8 -27 -17 -71 -20 -96 l-6 -46 -59 -6
c-98 -11 -145 -48 -220 -176 -7 -12 -12 -12 -34 3 -35 22 -121 12 -151 -18
l-21 -22 -37 27 c-50 36 -142 54 -173 34 -13 -8 -32 -15 -43 -15 -11 0 -35
-18 -53 -40 l-34 -39 -40 52 c-86 114 -99 124 -172 137 -137 24 -329 -18 -393
-86 l-22 -24 -18 30 c-41 66 -118 87 -168 44 -24 -20 -32 -23 -36 -11 -3 8
-20 24 -36 36 -27 20 -38 22 -89 16 -47 -5 -64 -13 -91 -40 -33 -33 -34 -33
-57 -14 -52 40 -170 33 -243 -16 l-38 -24 -36 36 c-35 35 -37 36 -100 31 -104
-9 -195 -65 -285 -177 -79 -97 -91 -109 -136 -130 -24 -12 -47 -21 -50 -21 -4
0 -4 39 0 88 4 48 7 100 6 116 0 17 4 53 9 80 6 28 15 98 21 156 7 58 16 125
20 150 5 25 12 140 15 255 6 220 11 271 28 293 9 11 4 13 -22 10 -38 -4 -35
15 -46 -283 -3 -99 -12 -234 -20 -300 -8 -66 -16 -138 -17 -160 l-3 -40 -60
-3 c-140 -6 -414 -7 -419 -1 -4 3 -2 48 3 100 14 136 22 293 22 459 0 240 1
230 -19 230 -18 0 -19 -18 -26 -317 -10 -461 -11 -473 -55 -473 -37 0 -44 30
-31 141 7 64 13 378 10 617 0 25 -4 32 -20 32 -20 0 -20 -7 -20 -297z m9845
-183 c28 -6 59 -16 70 -20 22 -10 53 -19 82 -24 10 -2 43 -11 73 -20 31 -9 78
-15 105 -14 l50 3 -1 -40 c-5 -127 -22 -334 -30 -346 -2 -3 -4 -35 -5 -70 -1
-80 -25 -365 -40 -484 -6 -49 -11 -99 -12 -110 0 -11 -6 -63 -13 -115 -7 -52
-18 -149 -24 -215 -5 -66 -19 -165 -30 -220 -32 -157 -60 -327 -55 -335 3 -4
-3 -34 -11 -66 -9 -33 -17 -81 -19 -109 -15 -326 -19 -375 -30 -375 -7 0 -38
-12 -69 -26 -58 -26 -181 -53 -336 -73 -47 -6 -96 -14 -110 -17 -14 -3 -61
-12 -105 -20 -44 -8 -96 -20 -115 -26 -48 -16 -384 -17 -480 0 -41 7 -118 17
-170 22 -52 5 -149 23 -215 41 -66 17 -165 39 -220 49 -144 25 -196 40 -258
72 -76 39 -98 51 -102 57 -2 4 -56 39 -119 77 l-115 69 4 90 c4 106 23 355 29
405 8 54 18 241 21 380 6 262 16 510 25 637 6 73 12 208 15 300 6 209 11 303
20 385 8 72 16 79 110 97 28 5 61 14 75 19 32 12 174 24 265 23 59 -1 138 -12
250 -36 34 -7 110 -36 120 -46 5 -5 18 -9 30 -9 12 0 26 -5 31 -10 6 -6 62
-12 125 -15 90 -3 156 2 314 25 110 16 232 38 270 49 197 55 463 74 600 41z
m-2245 -256 c0 -29 -4 -33 -32 -39 -18 -3 -44 -10 -58 -15 -14 -5 -64 -10
-111 -12 l-86 -4 -1 43 c0 36 3 44 21 48 32 7 102 11 190 12 l77 0 0 -33z
m-3189 -24 c-1 -25 -5 -49 -8 -53 -3 -5 -188 -7 -411 -5 -231 3 -425 1 -450
-5 -24 -5 -46 -7 -49 -4 -3 3 -2 23 2 45 l6 39 177 7 c97 4 278 7 402 7 124 0
241 4 260 9 66 16 75 11 71 -40z m-969 -49 c-2 -8 -7 -77 -13 -154 -5 -77 -10
-142 -12 -143 -1 -1 -45 -14 -97 -27 -52 -14 -130 -34 -172 -46 -145 -38 -403
-27 -643 28 -110 25 -288 61 -355 70 -324 46 -384 49 -543 26 -165 -23 -391
-89 -456 -133 -32 -22 -73 -41 -171 -80 -152 -61 -196 -74 -282 -79 l-88 -6 0
76 0 75 66 34 c64 32 102 67 174 160 34 45 100 101 147 125 13 7 51 17 84 23
54 10 63 9 81 -7 36 -33 40 -50 18 -90 -24 -45 -26 -79 -5 -87 19 -7 55 47 55
82 0 52 90 102 183 102 71 0 87 -10 87 -56 0 -56 40 -51 53 6 10 40 56 77 106
83 40 5 47 3 78 -28 21 -21 33 -43 33 -60 0 -38 31 -29 42 12 23 87 136 70
154 -23 6 -35 34 -59 42 -35 9 27 55 71 95 90 24 12 88 27 143 35 100 14 170
10 211 -12 27 -15 132 -137 144 -169 14 -37 43 -28 81 25 45 62 100 79 178 56
41 -12 54 -21 67 -50 21 -43 45 -44 74 -1 30 41 38 47 74 47 19 0 44 -11 65
-29 38 -31 70 -28 70 7 0 24 56 111 88 136 38 31 52 35 102 33 33 -1 44 -6 42
-16z m4153 -72 c-4 -28 -7 -97 -7 -153 1 -55 -3 -164 -8 -241 -5 -77 -12 -212
-15 -300 -12 -378 -17 -499 -25 -650 -5 -88 -11 -169 -13 -180 -3 -11 -8 -69
-11 -130 -3 -60 -9 -156 -12 -211 l-6 -102 -42 -7 c-22 -4 -97 -8 -166 -9 -69
-1 -138 -5 -154 -10 -29 -9 -29 -9 -22 25 7 33 22 178 31 287 2 29 8 68 14 85
5 18 10 48 9 68 0 20 5 60 11 90 6 30 11 70 10 89 -1 19 2 73 5 120 4 47 8
133 11 192 2 60 6 111 8 115 3 5 8 60 11 123 4 63 9 131 11 150 3 19 7 64 10
100 13 150 52 490 63 550 l7 35 105 6 c58 3 122 6 143 7 l39 2 -7 -51z m-3758
25 l59 -6 -3 -42 c-1 -22 -5 -79 -8 -126 -11 -165 -25 -326 -35 -405 -14 -116
-22 -437 -20 -775 5 -639 6 -607 -15 -756 -6 -41 -6 -41 -53 -47 -26 -3 -101
-3 -166 0 -81 3 -161 -1 -245 -13 -69 -9 -139 -17 -156 -18 -29 -1 -30 0 -27
39 2 22 13 90 24 150 23 129 59 349 72 445 3 19 8 80 12 135 4 55 8 102 9 105
1 3 4 37 8 75 15 142 63 440 82 510 8 28 21 95 29 150 15 95 27 159 46 250 5
22 12 97 16 167 3 69 10 131 14 138 12 20 243 36 357 24z m171 -11 c23 -6 24
-8 19 -92 -9 -135 -28 -334 -33 -351 -3 -8 -8 -121 -10 -250 -3 -238 -5 -264
-26 -605 -6 -104 -12 -323 -13 -485 0 -162 -4 -307 -9 -322 -7 -25 -50 -47
-65 -33 -3 4 -5 48 -3 98 5 152 5 346 2 652 -2 160 0 364 3 455 14 375 17 422
23 432 7 11 19 140 29 323 3 60 10 114 15 119 4 4 6 15 3 22 -6 16 14 44 31
44 6 0 22 -3 34 -7z m376 -2 c19 -1 19 -24 1 -246 -3 -33 -10 -159 -15 -280
-6 -121 -17 -323 -25 -450 -14 -243 -25 -589 -26 -916 -1 -108 -4 -201 -8
-206 -15 -24 -317 -50 -337 -30 -4 4 -2 31 4 59 7 34 10 136 8 283 -3 207 2
377 18 565 6 70 14 296 21 565 2 94 11 238 20 320 9 83 18 175 21 205 2 30 5
66 8 80 2 14 4 32 5 40 1 13 23 15 143 14 79 -1 151 -2 162 -3z m6048 -15 c90
-8 298 -17 462 -21 165 -3 302 -8 304 -10 3 -2 -1 -62 -8 -132 -6 -70 -12
-141 -12 -158 -1 -16 -7 -86 -15 -155 -8 -69 -16 -141 -18 -160 -2 -19 -6
-120 -10 -225 -3 -104 -7 -221 -10 -260 -10 -141 -16 -222 -25 -290 -4 -38 -9
-119 -10 -180 -1 -60 -4 -137 -6 -170 -2 -33 -3 -81 -4 -106 l0 -46 -232 -12
c-128 -7 -249 -12 -268 -12 -93 2 -318 5 -433 5 l-129 1 6 50 c3 28 8 86 12
130 4 44 10 90 15 101 4 12 9 50 10 85 1 35 6 78 11 94 17 57 60 311 70 415
13 139 14 151 27 250 10 78 22 203 51 512 6 64 13 147 15 185 4 79 13 123 26
123 5 0 82 -6 171 -14z m873 -32 c17 -4 20 -12 18 -52 -4 -87 -13 -217 -18
-242 -19 -106 -29 -228 -31 -360 -2 -198 -13 -366 -29 -455 -7 -38 -14 -131
-14 -205 -1 -74 -4 -144 -6 -155 -2 -11 -7 -76 -10 -145 -4 -69 -10 -156 -13
-195 l-7 -70 -38 -1 -38 -1 6 156 c11 283 13 336 19 361 3 14 7 61 10 105 3
44 7 105 10 135 3 30 8 134 11 230 8 219 13 309 19 335 11 44 35 276 30 288
-3 8 2 53 11 101 8 49 15 108 15 132 0 46 7 51 55 38z m1405 -8 c32 -4 224
-11 547 -21 67 -2 126 -6 130 -8 9 -6 159 -13 433 -23 102 -3 188 -8 191 -10
3 -2 117 -4 254 -5 l248 -1 -7 -117 c-9 -139 -24 -300 -31 -310 -2 -4 -168
-11 -367 -15 -426 -8 -434 -8 -478 -29 -19 -9 -76 -29 -127 -46 -123 -42 -202
-79 -216 -102 -6 -10 -17 -19 -23 -19 -6 0 -27 -21 -47 -46 -30 -38 -36 -56
-41 -107 -8 -102 -25 -458 -32 -677 -4 -113 -7 -223 -8 -245 -2 -38 -4 -40
-42 -46 -22 -4 -87 -10 -145 -13 -57 -3 -158 -11 -224 -18 -92 -9 -1153 -15
-1471 -8 -20 0 -20 1 -7 113 7 61 13 135 12 162 0 28 2 84 5 125 7 93 18 300
18 320 0 8 5 44 13 80 7 36 13 72 13 80 0 68 21 542 26 585 14 119 27 222 31
240 3 11 6 52 8 90 l2 70 150 6 c157 7 1124 2 1185 -5z m-12124 -49 c8 -4 9
-20 3 -49 -4 -24 -13 -142 -19 -263 -14 -272 -16 -291 -29 -390 -6 -44 -13
-100 -16 -125 -3 -25 -7 -67 -10 -95 -3 -27 -10 -79 -15 -115 -5 -36 -11 -117
-14 -180 -3 -63 -9 -171 -13 -240 -10 -166 -10 -660 1 -730 l8 -56 -169 4
c-92 2 -169 5 -170 6 -1 1 3 19 9 41 8 28 8 109 2 264 -5 122 -7 300 -4 394 3
95 1 228 -3 297 -5 69 -10 374 -13 677 l-4 553 22 5 c53 12 416 14 434 2z
m16202 -13 l72 -6 1 -76 c1 -190 -2 -438 -6 -457 -2 -11 -7 -44 -9 -73 -3 -29
-9 -58 -13 -65 -11 -17 -13 -75 -18 -522 -3 -225 -9 -426 -13 -445 l-8 -35
-419 -2 c-231 -1 -436 -3 -455 -4 -19 -1 -54 -1 -77 1 l-43 3 -2 56 c-3 111 2
268 12 365 14 138 13 505 -2 547 -26 74 -125 191 -182 215 -59 24 -103 27
-686 39 -168 4 -306 8 -306 9 -1 0 9 66 21 146 12 80 27 178 33 218 6 41 13
77 17 80 4 4 371 8 817 9 446 1 812 4 814 5 4 5 372 -2 452 -8z m-16699 -514
c0 -287 4 -526 8 -533 4 -7 9 -158 11 -337 1 -179 3 -431 5 -560 2 -254 -3
-284 -46 -278 -22 3 -22 5 -17 143 7 204 6 663 -2 870 -6 137 -5 181 5 187 9
6 8 8 -3 8 -13 0 -16 26 -16 183 -1 100 -5 223 -10 272 -9 88 -11 300 -4 478
l3 87 33 0 33 0 0 -520z m14552 492 c1 -9 1 -19 1 -22 -6 -76 -14 -158 -17
-170 -4 -15 -12 -78 -24 -180 l-6 -55 -35 3 c-19 2 -36 5 -38 6 -1 2 2 25 8
52 6 27 12 92 14 144 2 52 5 95 6 95 1 0 4 18 5 40 8 92 12 100 50 102 27 2
35 -1 36 -15z m2321 -1 c-2 -8 -3 -120 -3 -250 0 -130 -4 -275 -9 -321 -37
-323 -34 -265 -30 -650 1 -118 0 -231 -3 -250 -27 -171 -29 -180 -58 -180 -27
0 -27 1 -17 33 7 20 10 136 9 307 -2 293 11 564 34 695 8 44 17 189 20 325 7
292 9 312 39 308 11 -2 20 -10 18 -17z m-14973 -86 c204 -29 257 -37 346 -57
389 -84 360 -80 560 -84 l190 -4 128 35 c70 19 143 35 162 35 33 0 34 0 28
-37 -3 -21 -11 -67 -19 -102 -8 -34 -16 -82 -19 -105 -3 -23 -12 -74 -19 -112
-43 -212 -55 -273 -60 -314 -3 -25 -9 -74 -15 -110 -13 -88 -30 -247 -36 -350
-3 -47 -10 -112 -15 -145 -25 -162 -49 -302 -54 -315 -3 -8 -8 -33 -11 -55 -3
-22 -13 -94 -23 -160 l-17 -120 -65 -22 c-90 -30 -121 -29 -152 5 -49 51 -84
163 -80 256 1 21 10 66 21 100 53 161 62 255 32 323 -37 80 -110 97 -203 46
-43 -23 -56 -37 -77 -83 -29 -63 -31 -101 -17 -395 l8 -170 -31 -84 c-44 -120
-50 -127 -107 -129 -27 -2 -56 -5 -64 -7 -60 -18 -245 -37 -345 -35 -152 1
-272 20 -433 69 -70 21 -183 51 -251 66 -154 33 -266 73 -357 127 -38 22 -103
59 -144 80 -41 22 -82 45 -90 52 -8 6 -31 20 -50 29 -19 9 -64 37 -100 62
-125 86 -113 67 -106 170 3 49 9 167 12 260 3 94 10 211 14 260 16 165 50 466
60 528 5 34 9 76 8 92 -1 17 -1 46 0 66 l2 36 88 7 c87 6 131 17 227 54 110
43 154 62 240 105 123 63 292 117 424 136 93 14 297 12 410 -4z m5169 -477
l33 -13 -5 -55 c-5 -49 -8 -94 -20 -290 -15 -246 -31 -417 -51 -540 -3 -14
-14 -122 -25 -240 -12 -118 -26 -245 -31 -283 -10 -61 -13 -68 -37 -73 -34 -7
-150 -43 -177 -54 -51 -21 -198 -61 -270 -74 -124 -22 -715 -29 -893 -10 -77
8 -161 21 -188 29 -27 8 -58 15 -70 15 -22 0 -193 54 -284 90 -151 60 -255 93
-374 121 -154 37 -218 68 -308 149 -36 33 -71 60 -76 60 -19 0 -21 35 -16 275
3 132 5 272 4 310 0 39 5 135 11 215 6 80 11 157 11 171 -1 24 4 27 43 32 24
4 73 15 107 26 96 30 213 41 443 41 205 1 278 -7 385 -40 140 -44 307 -68 542
-77 125 -5 165 -3 275 17 181 32 322 66 438 105 262 90 450 122 533 93z m7282
-13 c115 -23 314 -32 449 -20 l84 8 -46 -56 c-25 -31 -64 -88 -87 -127 -45
-75 -63 -94 -60 -64 6 51 -18 75 -69 73 -20 -1 -79 1 -131 5 -321 21 -443 24
-558 12 -104 -11 -173 -63 -179 -136 -5 -52 43 -155 100 -218 39 -41 65 -63
282 -230 129 -100 154 -144 162 -283 3 -64 1 -103 -8 -124 -7 -16 -13 -32 -14
-35 -15 -59 -51 -86 -170 -129 -136 -49 -179 -75 -196 -119 -10 -26 5 -67 30
-79 9 -4 106 -8 216 -9 110 -1 218 -3 240 -3 22 -1 109 -2 193 -1 84 0 157 -2
163 -6 5 -3 16 0 25 6 8 7 29 20 47 29 62 31 45 83 -62 187 -43 43 -96 82
-147 108 -113 59 -129 95 -103 224 11 56 18 67 53 95 159 122 243 194 326 277
155 155 229 274 215 347 -8 45 -65 83 -122 83 -46 0 -50 5 -30 35 8 11 21 39
30 62 16 40 15 43 -1 52 -28 16 -10 19 58 10 36 -5 110 -11 165 -14 84 -5 180
-14 220 -21 6 -1 15 -2 22 -3 6 0 25 -12 41 -26 39 -33 50 -97 57 -335 2 -102
7 -198 9 -215 20 -127 23 -200 15 -319 -6 -72 -10 -171 -10 -221 1 -49 -5
-132 -13 -182 -13 -85 -17 -97 -55 -141 -49 -59 -79 -69 -236 -76 -123 -6
-159 -11 -228 -33 -70 -22 -306 -21 -712 2 -44 2 -143 7 -220 10 -77 3 -158
10 -180 15 -22 5 -139 9 -260 9 -203 0 -225 1 -280 22 -33 12 -72 30 -87 40
-14 11 -31 19 -37 19 -6 0 -16 10 -23 23 -16 26 -18 331 -4 617 4 102 7 192 6
200 -1 8 -3 78 -4 155 -5 200 16 296 77 353 55 51 241 107 407 123 52 5 111
13 131 17 19 5 75 10 124 11 50 1 92 4 94 7 6 5 256 -4 291 -11z m590 -73 c0
-10 -25 -50 -55 -89 -30 -39 -55 -74 -55 -78 0 -12 -129 -201 -150 -220 -11
-10 -20 -23 -20 -29 -1 -20 -70 -86 -91 -86 -29 0 -22 15 62 129 59 81 120
170 231 340 33 49 78 68 78 33z m-720 -141 c63 -6 177 -13 252 -16 135 -5 168
-10 168 -25 0 -13 -124 -21 -176 -11 -27 5 -161 11 -299 13 -248 3 -250 3
-282 -20 -39 -28 -43 -63 -13 -121 29 -58 124 -161 181 -196 17 -10 112 -81
186 -138 58 -44 113 -154 120 -239 3 -35 10 -68 15 -75 5 -6 5 -14 1 -16 -5
-3 -10 -29 -11 -58 -4 -90 -20 -130 -76 -185 -34 -35 -65 -56 -92 -63 -50 -13
-108 -51 -112 -73 -6 -30 29 -35 213 -26 99 4 234 10 300 12 116 4 120 5 126
28 3 13 3 33 -2 44 -8 23 -99 94 -119 94 -7 0 -31 10 -54 21 -22 12 -48 25
-55 29 -36 17 -55 61 -59 131 -7 119 5 193 39 236 53 68 59 74 69 68 6 -3 10
1 10 9 0 14 72 79 97 87 29 9 342 314 344 334 0 6 2 21 5 34 7 41 -21 71 -66
71 -52 0 -59 16 -13 29 49 14 66 14 97 -1 55 -25 38 -117 -39 -213 -102 -126
-309 -314 -437 -397 -26 -17 -48 -36 -48 -41 0 -6 -8 -19 -17 -29 -9 -10 -18
-35 -20 -56 -1 -20 -5 -57 -7 -81 -9 -97 40 -158 168 -209 66 -26 186 -143
186 -182 0 -10 -8 -21 -17 -25 -10 -4 -197 -9 -416 -11 -359 -3 -398 -2 -404
13 -11 28 12 47 88 76 206 80 220 87 256 148 21 37 28 60 38 136 7 53 -12 197
-30 234 -19 36 -88 107 -141 144 -63 45 -276 226 -303 258 -13 15 -32 45 -42
65 -58 113 -21 176 109 188 31 3 58 6 59 7 8 7 128 6 223 -2z m449 -113 c-13
-18 -54 -73 -91 -122 -37 -49 -68 -99 -68 -111 0 -29 -25 -51 -42 -38 -30 24
-67 24 -88 1 -65 -69 -56 -147 20 -186 25 -12 45 -26 45 -30 0 -4 -11 -27 -24
-52 l-24 -44 -15 39 c-35 93 -81 151 -165 211 -45 32 -84 62 -87 65 -3 4 -29
23 -58 42 -87 57 -172 167 -172 221 0 20 6 26 33 31 48 9 476 -2 522 -14 49
-12 189 -3 213 15 26 19 27 9 1 -28z m241 12 c67 -10 54 -34 -102 -183 -79
-75 -162 -151 -185 -168 l-43 -31 0 35 c0 26 5 36 25 45 13 6 48 44 78 84 29
40 72 99 95 130 24 32 41 60 40 62 -6 9 36 45 45 39 6 -4 27 -9 47 -13z
m-12160 -556 c28 -57 24 -109 -21 -250 -55 -170 -43 -304 37 -416 29 -41 31
-48 16 -52 -9 -3 -48 -14 -87 -25 -57 -16 -199 -41 -235 -41 -5 0 4 29 20 65
40 89 53 166 46 271 -20 318 -20 356 3 410 25 57 63 86 126 94 54 8 69 -1 95
-56z m11753 -428 c30 -14 58 -26 64 -26 14 0 103 -60 103 -70 0 -4 -37 -8 -82
-9 -46 0 -123 -4 -173 -10 -125 -13 -232 -14 -220 -3 6 5 26 15 46 21 24 8 55
32 88 71 28 32 51 61 51 64 0 2 5 17 10 32 l11 27 24 -35 c14 -21 45 -46 78
-62z m-1492 75 c24 -1 26 -5 25 -39 0 -36 -4 -40 -42 -56 -42 -17 -245 -35
-401 -35 -40 0 -101 -5 -135 -11 -34 -7 -119 -10 -188 -8 -69 1 -177 -1 -240
-5 -72 -5 -182 -4 -295 4 -99 6 -238 10 -310 8 -71 -2 -435 -3 -809 -3 -749 1
-696 -4 -696 68 l0 39 218 -8 c205 -8 540 -7 553 1 15 9 495 16 1019 14 792
-3 800 -2 866 8 33 6 95 11 139 12 44 1 107 5 140 9 33 4 76 7 95 6 19 -1 47
-3 61 -4z m3597 -56 c62 -6 72 -9 67 -23 -6 -16 -7 -31 -25 -237 -5 -60 -11
-127 -14 -149 -3 -21 -8 -74 -11 -119 -2 -44 -10 -119 -16 -166 -5 -47 -14
-171 -19 -276 -5 -104 -15 -211 -22 -238 l-13 -48 -83 -3 c-74 -3 -87 -7 -112
-31 -31 -30 -43 -79 -30 -125 9 -33 8 -35 -18 -20 -22 12 -150 41 -227 51 -92
12 -128 19 -152 31 -11 6 -38 8 -60 5 -21 -3 -76 -11 -122 -17 -46 -6 -91 -15
-101 -20 -10 -5 -38 -14 -62 -19 -25 -6 -51 -13 -60 -16 -12 -5 -16 6 -21 55
-6 71 -25 98 -94 131 -73 35 -182 16 -221 -38 -32 -46 -37 -93 -13 -139 11
-21 23 -58 27 -81 6 -39 5 -43 -14 -43 -12 0 -24 -4 -27 -10 -3 -5 -17 -10
-30 -10 -13 0 -26 -4 -30 -9 -3 -5 -30 -17 -60 -25 -30 -9 -57 -21 -60 -26 -3
-6 -14 -10 -25 -10 -10 0 -42 -18 -71 -40 -30 -22 -57 -40 -61 -40 -5 0 -16
-13 -26 -28 -9 -16 -36 -50 -59 -76 -39 -44 -44 -46 -65 -35 -14 8 -72 14
-148 16 -157 4 -166 6 -163 29 2 11 7 81 13 157 5 76 15 169 21 205 6 37 12
96 15 132 2 36 6 83 9 105 3 22 10 94 16 160 9 112 14 183 24 345 3 65 10 115
20 158 l6 23 207 -5 c114 -3 236 -1 272 4 36 5 139 9 230 10 188 2 249 12 337
51 44 19 70 39 92 70 44 60 82 191 96 330 l6 56 197 -3 c108 -2 213 0 232 4
40 9 337 6 448 -3z m153 -32 c3 -32 2 -57 -4 -123 -4 -36 -9 -113 -13 -172 -3
-59 -10 -134 -15 -165 -19 -113 -25 -174 -33 -323 -6 -106 -11 -188 -22 -335
-3 -44 -9 -93 -14 -110 -4 -16 -11 -42 -14 -58 l-6 -27 -25 22 c-24 23 -24 23
-10 93 8 39 19 149 24 245 11 198 26 370 48 545 8 66 18 173 23 239 5 65 14
134 20 152 12 36 39 46 41 17z m-9353 -32 c-3 -25 -5 -26 -123 -39 -66 -7
-131 -14 -145 -16 -14 -2 -47 -5 -75 -7 l-50 -3 3 34 c2 19 6 37 8 39 7 8 131
16 257 17 l128 1 -3 -26z m5632 -27 c0 -1 6 -36 14 -77 16 -83 42 -141 78
-173 33 -31 99 -64 126 -64 13 0 36 -7 52 -15 53 -28 202 -53 315 -55 66 0
147 -9 204 -20 75 -16 134 -20 291 -20 l198 0 5 -27 c3 -16 1 -33 -5 -40 -5
-7 -7 -16 -4 -21 3 -5 1 -51 -4 -103 -7 -74 -21 -378 -22 -459 0 -8 -6 -58
-14 -110 -7 -52 -18 -187 -25 -300 -6 -113 -15 -212 -20 -221 -6 -11 -29 -19
-72 -23 -54 -6 -71 -13 -101 -41 -53 -48 -51 -59 31 -182 34 -51 39 -63 25
-64 -9 -1 -147 -2 -306 -4 -242 -1 -286 1 -270 12 10 7 24 13 31 13 7 0 13 3
13 8 0 4 23 23 49 42 49 35 104 114 131 190 10 29 17 35 43 36 36 2 87 52 87
87 -1 65 -82 126 -200 151 -106 23 -141 33 -161 49 -21 16 -59 98 -59 126 0
31 54 81 130 122 81 43 142 138 135 211 -1 12 -3 34 -4 48 -2 48 -68 143 -124
180 -29 18 -78 51 -110 72 -33 21 -73 42 -90 45 -18 3 -48 14 -67 23 -72 35
-216 61 -305 55 -98 -7 -205 -8 -211 -3 -3 3 7 20 22 38 52 61 42 175 -19 214
-12 9 -51 16 -89 18 -53 2 -75 -3 -111 -21 -56 -29 -103 -76 -136 -138 -35
-65 -73 -82 -176 -81 -44 1 -105 -6 -135 -14 -30 -9 -91 -23 -135 -33 -115
-24 -192 -49 -257 -84 -32 -17 -63 -31 -69 -31 -22 0 -123 -74 -179 -130 -30
-30 -88 -94 -129 -142 -41 -48 -78 -85 -82 -82 -4 2 -18 25 -31 51 -13 26 -43
69 -68 96 -42 45 -48 48 -100 51 l-55 2 2 50 c8 167 35 520 45 579 7 39 11 74
9 79 -1 5 1 26 4 46 l6 37 167 7 c95 4 255 3 372 -4 186 -10 654 -2 885 14 33
3 107 6 165 7 58 1 143 7 190 14 78 11 120 14 120 9z m-2740 -46 c113 5 653 1
662 -4 10 -6 6 -114 -7 -239 -2 -16 -6 -122 -9 -235 -5 -198 -17 -303 -37
-316 -8 -5 -73 -5 -274 -2 -82 1 -137 -16 -175 -55 -31 -31 -70 -103 -70 -129
0 -12 -24 -83 -41 -123 -40 -92 -79 -202 -79 -222 0 -39 -56 -198 -106 -298
-36 -72 -47 -105 -51 -157 l-4 -65 30 -6 c17 -4 59 -4 94 0 50 4 72 2 102 -13
48 -22 84 -22 157 4 l58 20 60 -26 61 -27 -3 -67 -2 -68 -196 0 c-107 0 -251
5 -320 11 -183 14 -359 13 -493 -5 -124 -17 -225 -20 -299 -10 -43 6 -45 8
-58 53 -29 100 -99 220 -168 289 -143 143 -258 205 -437 236 -83 14 -269 15
-317 2 -22 -7 -29 -4 -34 10 -37 110 -108 211 -164 234 -38 16 -110 5 -143
-20 -46 -36 -40 -117 14 -198 16 -24 29 -45 29 -48 0 -8 -95 -4 -130 6 -19 5
-73 12 -119 14 -46 3 -86 7 -89 11 -8 8 -8 371 1 525 4 74 8 172 8 218 l0 83
32 -21 c55 -37 135 -69 235 -96 53 -14 129 -37 167 -51 233 -85 307 -102 442
-103 l81 0 53 -67 c29 -37 65 -79 80 -94 14 -14 34 -38 44 -53 10 -15 63 -66
119 -114 207 -178 220 -188 390 -277 58 -30 120 -63 138 -73 102 -56 193 -85
284 -90 84 -4 93 -3 130 21 53 33 74 67 74 118 0 49 -26 96 -73 132 -44 34
-144 83 -197 97 -54 15 -132 53 -149 74 -7 8 -40 34 -73 58 -33 24 -73 53 -88
66 -15 12 -32 22 -38 22 -17 0 -105 52 -152 89 -118 94 -135 131 -61 131 105
0 350 54 367 81 3 5 13 9 22 9 42 0 158 72 213 132 52 56 58 68 78 149 23 93
51 325 51 421 0 56 0 57 33 61 17 3 95 2 172 -1 77 -3 156 -4 175 -4z m-2893
-141 c2 -182 13 -216 105 -310 l70 -72 4 -190 c6 -285 4 -439 -7 -450 -5 -5
-9 -38 -9 -75 l0 -65 -52 4 c-98 6 -168 -31 -209 -112 -17 -32 -18 -43 -8 -80
6 -23 16 -48 21 -55 15 -17 -12 -45 -67 -71 -105 -49 -167 -144 -169 -260 -1
-63 2 -73 34 -117 42 -60 53 -70 108 -95 23 -11 42 -24 42 -28 0 -12 -69 -19
-155 -16 -289 8 -439 9 -560 1 -77 -5 -196 -9 -265 -9 -519 5 -811 -1 -1030
-23 -55 -5 -56 -5 -72 28 -27 58 -176 233 -259 304 -13 12 -64 43 -114 69
-151 81 -184 109 -185 162 0 17 -4 34 -10 38 -5 3 -9 34 -9 69 1 86 -19 250
-38 309 -8 26 -33 80 -56 120 -22 39 -54 100 -72 134 -50 100 -93 136 -272
227 -135 69 -186 86 -258 86 l-64 0 5 68 c3 37 10 97 15 134 5 37 9 97 9 135
0 37 4 74 9 82 12 19 89 29 215 29 l105 0 7 -36 c23 -136 87 -252 138 -252 13
0 34 -10 47 -23 68 -64 113 -91 259 -154 58 -24 110 -48 115 -53 51 -39 216
-107 305 -124 49 -10 175 -45 240 -66 30 -10 67 -21 82 -24 20 -5 34 -19 49
-49 12 -23 31 -52 43 -63 11 -12 52 -75 91 -140 94 -159 181 -248 333 -339 9
-5 66 -42 127 -81 212 -138 327 -189 452 -200 59 -5 74 -3 113 18 27 15 58 43
76 70 29 43 31 51 23 92 -4 25 -14 54 -21 66 -20 33 -127 96 -193 115 -33 9
-72 25 -86 36 -15 10 -32 19 -37 19 -6 0 -26 15 -46 33 -19 18 -52 42 -73 53
-72 36 -261 169 -282 197 -7 10 -26 32 -41 47 -16 16 -31 37 -34 47 -3 10 -19
27 -36 36 -16 10 -30 22 -30 28 0 5 41 9 93 9 125 0 299 17 370 36 31 8 81 19
110 24 194 34 314 80 379 144 71 70 103 111 100 130 -2 9 1 22 6 29 26 34 80
249 103 413 l12 90 181 21 c100 11 190 20 201 19 19 -1 20 -9 22 -139z m3683
128 c-6 -8 -9 -23 -6 -33 4 -11 2 -66 -4 -123 -21 -209 -28 -297 -35 -439 -4
-80 -11 -153 -16 -162 -9 -17 -49 -25 -61 -12 -3 3 -2 21 3 41 4 20 9 118 10
217 1 100 5 213 10 251 4 39 10 99 13 135 13 142 13 140 58 140 34 0 39 -2 28
-15z m-6874 -47 c-3 -13 -6 -31 -6 -40 0 -15 -9 -18 -48 -18 -67 0 -294 -28
-326 -40 -34 -12 -103 -13 -177 -1 -95 16 -376 11 -512 -8 -86 -12 -94 -9 -89
34 4 37 11 42 80 50 26 4 74 11 107 16 33 6 226 12 428 14 202 1 371 5 374 9
3 3 44 6 91 6 83 0 84 0 78 -22z m-519 -155 c9 -12 12 -54 9 -147 -2 -72 -4
-156 -5 -186 l-1 -54 -27 52 c-15 29 -33 52 -40 52 -7 0 -13 4 -13 9 0 4 -20
14 -45 21 -73 20 -123 -10 -139 -87 -6 -27 5 -66 31 -114 2 -3 -26 -9 -62 -11
-39 -4 -73 -12 -83 -21 -9 -9 -29 -20 -44 -26 -24 -9 -27 -7 -37 20 -5 16 -8
29 -5 29 3 0 -5 18 -17 40 -17 31 -38 47 -86 71 -82 40 -114 29 -163 -59 -22
-39 -23 -46 -11 -75 7 -18 16 -45 18 -60 5 -28 5 -28 -38 -24 -43 4 -62 -1
-169 -49 -89 -40 -116 -57 -174 -107 -57 -49 -105 -122 -112 -172 -11 -75 -10
-153 4 -195 10 -30 11 -45 4 -48 -29 -9 -60 -45 -66 -73 -9 -48 14 -76 78 -94
37 -11 60 -24 72 -43 40 -61 67 -75 204 -107 41 -9 87 -21 101 -27 64 -23 107
-116 96 -202 -4 -24 -18 -66 -33 -92 -56 -102 -68 -131 -84 -194 l-16 -65 -45
0 c-44 0 -44 0 -45 35 -2 105 -2 106 -59 164 -38 39 -62 56 -82 58 -15 0 -32
2 -38 3 -5 2 -23 3 -40 4 -26 1 -35 9 -62 59 l-31 57 20 25 c39 48 7 162 -63
227 -30 26 -112 77 -159 98 -39 16 -35 14 -119 72 -34 23 -72 45 -84 49 -38
12 -88 54 -212 178 -95 95 -129 137 -158 194 -21 40 -51 94 -67 119 -17 26
-28 48 -26 51 3 2 168 5 368 6 393 3 393 3 657 68 135 33 174 46 211 73 64 47
94 83 114 135 10 25 23 52 31 60 7 8 12 22 12 31 0 9 14 52 31 95 17 44 33
100 37 125 l6 46 92 13 c51 7 153 14 227 17 74 3 136 6 137 7 1 1 44 -2 95 -6
68 -6 96 -13 105 -25z m137 -51 c-1 -58 -15 -279 -19 -307 -1 -5 -3 -20 -3
-32 -2 -19 -8 -23 -38 -23 l-36 0 7 128 c5 70 9 163 9 207 l1 80 35 6 c19 4
37 7 40 8 3 0 5 -29 4 -67z m8950 -11 c3 -5 -5 -12 -19 -15 -15 -4 -33 -22
-45 -44 -12 -20 -32 -52 -45 -71 -41 -56 -28 -114 28 -125 87 -18 108 -19 322
-17 91 2 138 -3 195 -18 121 -31 242 -79 280 -110 l35 -29 -50 9 c-190 38
-429 -46 -394 -138 11 -29 66 -81 109 -103 100 -51 309 -71 375 -36 17 9 35
16 40 16 6 0 21 9 35 20 36 28 42 25 38 -17 -9 -75 -52 -126 -142 -168 -59
-28 -116 -87 -116 -120 0 -21 -3 -25 -12 -17 -7 5 -48 21 -90 36 -73 25 -90
26 -265 27 -210 2 -278 -10 -405 -71 -173 -81 -295 -338 -259 -546 30 -167
113 -256 276 -295 190 -44 292 -40 457 20 82 30 83 29 85 -35 2 -80 34 -123
183 -249 111 -93 200 -289 177 -389 l-10 -46 -127 7 -127 6 -61 -33 c-70 -39
-74 -49 -63 -155 11 -102 38 -154 113 -215 85 -70 89 -75 76 -111 -9 -28 -12
-29 -57 -24 -26 2 -74 17 -107 33 -32 16 -90 37 -129 47 -38 10 -77 23 -85 30
-8 6 -34 19 -56 28 -23 9 -57 27 -77 40 -22 15 -59 27 -91 31 -48 6 -64 4
-116 -20 -77 -34 -106 -68 -115 -134 -10 -71 6 -102 73 -147 71 -47 77 -52
170 -144 75 -73 104 -93 207 -143 91 -44 134 -53 216 -46 73 6 178 4 186 -3
11 -12 -19 -50 -59 -76 -62 -40 -73 -61 -48 -94 16 -20 32 -26 82 -32 97 -10
101 -12 94 -48 -4 -18 -8 -39 -9 -47 -6 -29 -19 -66 -59 -172 -45 -120 -135
-249 -255 -368 -37 -37 -97 -97 -133 -134 -49 -50 -73 -67 -100 -71 -133 -21
-150 -27 -185 -68 -19 -22 -35 -46 -35 -53 0 -51 -53 -94 -115 -94 -20 0 -53
-9 -73 -19 -121 -63 -260 -107 -367 -116 -38 -3 -165 -7 -280 -10 -116 -2
-233 -9 -260 -15 -60 -14 -259 -5 -313 15 -21 7 -59 26 -87 43 -27 17 -71 44
-97 59 -26 15 -49 36 -52 46 -3 12 -11 17 -23 15 -10 -2 -35 6 -55 19 -21 13
-41 23 -44 23 -10 0 -64 62 -64 74 0 5 -44 53 -98 105 -84 82 -101 103 -112
146 -19 70 -17 132 7 187 24 54 56 78 113 85 37 5 43 3 79 -35 51 -53 79 -124
64 -163 -10 -25 -8 -29 8 -34 33 -11 50 12 43 59 -9 69 -13 84 -28 99 -52 51
-196 289 -196 322 0 4 -15 32 -33 63 -18 31 -43 93 -56 137 -12 44 -27 91 -32
105 -23 62 -31 165 -34 435 -2 226 0 299 11 330 8 22 14 50 14 63 0 13 6 35
14 50 7 15 16 48 20 74 4 25 14 52 21 58 8 7 15 17 15 24 0 10 67 126 79 136
14 11 101 149 124 195 55 109 101 174 182 256 72 73 92 101 129 180 46 99 72
189 62 215 -3 9 -2 33 4 54 8 29 6 54 -6 106 -23 96 -24 263 -1 334 10 30 25
83 33 118 10 40 27 76 45 97 16 18 35 44 42 59 17 31 108 136 197 226 51 51
89 77 179 123 132 67 206 97 240 97 14 0 38 4 55 9 107 33 215 51 276 46 52
-5 74 -2 111 14 53 24 71 42 93 96 18 43 80 105 130 129 34 17 121 21 130 7z
m50 -93 c0 -32 -8 -55 -30 -86 -25 -35 -33 -40 -59 -37 -16 2 -36 4 -43 4 -19
1 -8 30 39 100 56 85 94 92 93 19z m1583 -205 c-4 -109 -13 -270 -21 -358 -8
-88 -18 -194 -21 -235 -3 -41 -12 -112 -20 -158 -8 -46 -15 -124 -16 -174 -2
-106 -18 -171 -44 -176 -16 -4 -17 5 -11 105 18 322 20 351 35 468 6 44 14
148 17 230 3 83 12 220 21 305 9 85 16 163 16 173 1 11 9 17 25 17 l24 0 -5
-197z m-13951 159 c38 -2 46 -7 83 -55 22 -30 47 -54 53 -54 7 0 33 -13 58
-28 25 -16 74 -45 110 -65 36 -20 74 -41 85 -48 11 -6 67 -28 125 -47 235 -82
219 -74 226 -114 9 -47 47 -137 119 -284 116 -238 228 -374 434 -529 53 -40
101 -77 106 -83 16 -18 117 -81 155 -97 20 -9 72 -36 116 -61 44 -25 90 -47
103 -49 15 -2 32 -18 48 -47 13 -24 23 -44 21 -46 -2 -1 -28 -17 -59 -34 -33
-18 -68 -48 -84 -71 -26 -37 -27 -45 -22 -109 4 -52 2 -71 -7 -74 -7 -3 -83
-6 -167 -7 -85 -1 -203 -7 -262 -14 -66 -7 -132 -9 -170 -4 -34 4 -118 7 -187
7 -262 -2 -386 1 -415 9 -22 6 -37 21 -55 56 -70 132 -121 237 -145 296 -14
36 -35 81 -45 101 -11 20 -20 46 -20 57 0 12 -6 25 -12 29 -7 4 -22 24 -32 43
-40 72 -96 129 -139 141 -37 11 -265 15 -380 7 l-39 -3 -4 265 c-2 146 -6 315
-9 375 -3 61 -6 205 -7 320 l-2 210 115 5 c109 5 216 5 305 2z m-465 -54 c0
-18 2 -78 4 -133 22 -544 27 -987 11 -997 -32 -22 -35 -9 -34 175 0 100 -7
268 -16 372 -9 105 -17 286 -18 403 l-3 212 28 0 c24 0 27 -4 28 -32z m9062
16 c29 -9 56 -21 62 -25 5 -5 15 -9 23 -9 28 0 101 -40 96 -53 -2 -7 -21 -22
-42 -32 -20 -11 -48 -30 -62 -43 -14 -13 -49 -35 -78 -49 -44 -21 -62 -25
-104 -20 -54 7 -200 68 -233 99 -19 18 -19 18 0 33 20 15 79 45 160 80 34 15
83 29 118 34 5 0 32 -6 60 -15z m-3163 -60 c76 -20 118 -46 131 -81 7 -20 4
-29 -19 -52 -40 -41 -63 -50 -139 -57 -37 -3 -70 -6 -73 -7 -3 0 -32 3 -65 7
-110 13 -148 26 -182 64 -30 33 -31 37 -18 62 43 82 200 110 365 64z m-2326 1
c38 -18 75 -64 79 -97 2 -23 1 -23 -115 -41 -35 -5 -39 -3 -54 29 -19 39 -14
70 16 102 25 26 32 27 74 7z m4088 -37 c34 -29 42 -115 34 -400 -4 -150 -7
-324 -6 -385 1 -74 -2 -113 -9 -113 -6 0 -11 6 -11 13 0 6 -13 28 -28 48 -28
37 -28 38 -19 130 7 80 8 217 5 509 -1 131 3 210 10 210 5 0 15 -6 24 -12z
m-4501 -84 c15 -14 33 -48 41 -77 14 -49 17 -52 49 -55 22 -2 51 6 81 22 39
21 58 24 120 22 42 -1 84 3 98 10 58 28 77 34 105 33 17 0 94 5 171 12 139 12
143 12 200 -11 33 -13 66 -28 74 -35 8 -6 38 -22 65 -34 28 -13 69 -36 93 -52
24 -16 47 -29 51 -29 13 0 71 -59 71 -72 0 -6 6 -19 14 -27 21 -23 136 -251
136 -269 0 -9 4 -29 9 -46 16 -51 31 -165 35 -266 2 -52 7 -106 12 -119 4 -14
3 -22 -2 -19 -5 3 -49 -1 -99 -8 -49 -7 -130 -20 -180 -27 -49 -8 -112 -24
-140 -37 -113 -52 -144 -62 -235 -76 -120 -19 -293 -18 -392 1 -42 8 -132 17
-199 21 -116 7 -122 8 -100 23 57 40 99 83 105 109 17 68 22 130 14 162 -13
47 -138 174 -202 206 -54 26 -142 32 -192 14 -15 -6 -44 -13 -63 -15 -20 -3
-70 -9 -111 -14 -76 -9 -150 -34 -150 -50 0 -15 -48 -41 -64 -35 -9 3 -25 21
-37 40 -17 29 -21 49 -20 126 1 101 21 158 70 204 l26 24 23 -45 22 -45 61 0
c97 0 155 36 166 103 8 53 -3 86 -35 98 l-27 11 25 13 c16 8 59 13 121 12 84
0 99 2 126 23 56 41 50 96 -18 169 -24 24 -29 35 -19 41 19 12 70 -6 101 -36z
m10229 -99 c0 -3 -15 -18 -32 -34 -31 -28 -33 -33 -33 -99 l0 -69 -32 7 c-54
13 -142 69 -149 96 -9 35 9 51 89 75 40 12 77 23 82 24 17 6 75 5 75 0z
m-12035 -96 c164 -25 174 -28 193 -64 9 -18 37 -71 61 -118 25 -47 71 -119
103 -159 75 -95 215 -220 303 -270 38 -22 88 -52 110 -66 72 -48 136 -82 153
-82 6 0 12 -5 12 -11 0 -5 -5 -7 -10 -4 -12 8 -85 -28 -116 -57 -42 -38 -35
-121 15 -182 9 -10 11 -17 6 -15 -16 6 -115 58 -167 87 -97 55 -296 209 -383
297 -79 80 -145 153 -145 160 0 1 -20 33 -45 71 -47 71 -147 261 -160 303 -4
13 -14 40 -23 60 -23 55 -23 74 2 67 12 -4 53 -11 91 -17z m9475 -12 c80 0
182 2 228 2 120 1 153 -21 222 -152 23 -43 23 -47 7 -65 -9 -10 -17 -25 -17
-33 -1 -8 -9 -31 -18 -51 l-18 -38 -32 37 c-18 21 -32 45 -32 55 0 9 -4 20
-10 23 -5 3 -10 24 -10 46 0 41 -21 62 -42 41 -16 -16 20 -150 52 -192 43 -56
51 -100 33 -183 -17 -81 -12 -202 12 -279 9 -30 12 -67 8 -103 -5 -50 -8 -56
-32 -61 -14 -2 -46 -11 -71 -19 -61 -20 -92 -19 -150 6 -57 25 -117 21 -178
-10 -50 -25 -117 -27 -163 -4 -41 20 -93 20 -144 -1 -49 -21 -88 -20 -133 3
-30 15 -46 17 -87 10 -77 -12 -82 -11 -95 20 -10 26 -8 38 15 93 15 35 39 88
55 118 28 56 58 151 80 250 11 51 31 110 64 185 8 17 23 51 35 78 11 26 21 59
21 73 0 28 56 120 80 130 36 16 127 31 150 25 14 -3 90 -5 170 -4z m-1740 -60
c105 -99 166 -144 276 -202 68 -36 117 -69 196 -133 41 -33 148 -92 167 -92 5
0 22 -5 37 -10 l26 -10 -33 -23 c-47 -31 -67 -93 -48 -150 7 -22 24 -53 37
-68 l23 -28 -28 8 c-35 11 -125 47 -155 62 -28 15 -35 18 -178 92 -134 69
-141 73 -350 247 -19 16 -47 38 -62 50 -15 11 -60 62 -101 113 -41 51 -82 99
-91 106 -9 7 -13 17 -10 22 3 5 0 9 -5 9 -6 0 -11 4 -11 9 0 7 127 22 250 29
17 1 38 -10 60 -31z m-3308 -36 c24 -16 59 -48 78 -72 89 -107 181 -183 331
-271 42 -25 99 -63 125 -84 27 -22 69 -48 92 -58 48 -22 52 -33 18 -46 -60
-23 -87 -143 -46 -205 11 -16 20 -33 20 -36 0 -14 -138 50 -215 99 -44 28
-107 68 -140 88 -147 91 -262 172 -299 213 -48 51 -121 157 -156 227 -14 27
-27 51 -30 54 -10 10 -70 98 -70 104 0 5 54 9 197 14 43 2 60 -3 95 -27z
m9614 -202 c61 -29 77 -55 69 -113 -12 -82 12 -89 153 -45 53 16 199 42 237
41 24 0 163 -23 190 -31 17 -5 71 -15 120 -21 87 -12 118 -24 159 -62 11 -10
34 -18 52 -18 18 0 36 -4 39 -10 10 -17 55 -11 86 11 34 24 50 72 36 114 -11
35 -52 82 -79 91 -30 9 -20 24 15 24 42 0 110 -47 133 -92 18 -35 15 -128 -7
-154 -13 -16 3 -44 26 -44 6 0 17 -10 24 -23 17 -31 71 -66 130 -84 68 -19
110 -50 147 -105 54 -80 75 -167 79 -331 4 -112 -3 -137 -60 -237 -47 -81 -97
-199 -97 -226 0 -18 7 -47 16 -65 9 -19 24 -56 34 -84 21 -59 75 -144 126
-200 23 -25 39 -53 42 -77 4 -21 24 -61 45 -90 22 -28 39 -58 39 -65 0 -7 5
-13 10 -13 6 0 10 -10 10 -23 0 -13 3 -27 7 -31 18 -18 28 -73 20 -106 -5 -19
-11 -58 -14 -87 -4 -45 -1 -60 26 -107 l31 -54 -62 -29 c-35 -16 -88 -40 -118
-52 -30 -13 -73 -38 -95 -56 -36 -31 -40 -39 -40 -80 0 -36 5 -51 21 -64 12
-9 25 -28 29 -42 11 -35 23 -47 56 -54 37 -8 47 -24 25 -40 -9 -7 -21 -36 -26
-66 -16 -93 -38 -152 -84 -221 -83 -123 -101 -178 -111 -335 -10 -150 -80
-336 -168 -445 -49 -62 -129 -138 -159 -154 -16 -8 -28 -19 -28 -23 0 -14 -98
-72 -175 -104 -57 -23 -95 -30 -200 -38 -173 -13 -251 -27 -370 -67 -133 -45
-276 -52 -306 -16 -26 32 -69 44 -151 45 -46 0 -90 -2 -98 -5 -16 -6 -41 -11
-128 -26 -29 -5 -58 -13 -65 -17 -27 -18 -100 -11 -136 12 -20 13 -56 26 -80
30 -83 13 -118 36 -229 147 -39 39 -72 99 -83 148 -4 19 -15 71 -24 115 -9 44
-20 89 -25 100 -10 20 -30 134 -35 188 -2 32 20 189 33 232 14 46 -3 240 -27
315 -41 124 -37 280 9 405 28 77 48 145 60 205 33 167 77 230 284 414 36 32
66 65 66 72 0 8 4 14 10 14 5 0 19 19 31 42 39 77 7 200 -89 343 -43 64 -60
104 -71 174 -5 31 -17 97 -26 146 -17 96 -21 200 -7 219 5 6 9 21 10 34 1 30
35 124 66 187 14 28 26 57 26 66 0 26 90 122 149 159 79 50 238 121 280 125
20 1 41 3 47 4 7 1 14 9 17 20 3 12 17 20 46 25 35 5 44 12 61 46 37 73 21
123 -59 182 -44 32 -44 43 -1 51 48 8 61 7 106 -14z m1043 -84 c27 -20 52 -42
55 -51 29 -76 -55 -128 -99 -61 -21 33 -36 119 -23 134 14 17 11 18 67 -22z
m-3087 -48 c56 -26 81 -44 92 -65 41 -79 87 -111 197 -138 149 -35 234 -100
193 -145 -25 -28 -62 -24 -74 7 -13 34 -46 29 -42 -6 8 -59 3 -86 -23 -135
l-28 -51 -54 2 c-40 2 -61 8 -77 23 -26 24 -42 27 -49 8 -11 -29 42 -70 101
-77 l46 -5 -65 -42 c-36 -24 -88 -50 -115 -59 -27 -9 -56 -22 -64 -29 -8 -6
-58 -17 -111 -23 -85 -10 -124 -21 -194 -52 -60 -26 -108 -34 -210 -32 -60 1
-117 3 -125 5 -8 2 -33 7 -55 12 -174 34 -276 177 -262 369 3 45 11 96 18 112
6 16 16 40 21 54 57 145 140 223 292 275 73 25 174 34 346 30 l165 -3 77 -35z
m-5184 21 c21 -2 102 -103 102 -127 0 -12 7 -35 15 -50 8 -16 11 -31 8 -35 -9
-9 -153 -7 -153 2 0 4 -10 12 -22 17 -13 6 -30 25 -39 42 -9 18 -21 38 -26 45
-8 11 -10 47 -4 88 1 13 62 30 86 24 11 -3 26 -6 33 -6z m-5038 -57 c35 -13
71 -40 119 -88 74 -76 86 -106 72 -179 -22 -117 -105 -174 -252 -174 -58 0
-68 3 -90 26 -13 15 -43 39 -67 54 l-42 28 24 16 c60 39 81 81 52 105 -11 9
-18 8 -30 -4 -9 -9 -16 -20 -16 -25 0 -5 -20 -23 -44 -40 -71 -48 -168 -41
-221 16 -14 15 -25 35 -25 45 0 11 -5 19 -11 19 -6 0 1 14 16 31 18 23 23 35
16 42 -20 20 -11 35 41 68 40 26 65 34 103 36 27 0 61 4 75 6 14 3 40 8 59 11
l35 6 -21 -22 c-11 -13 -23 -31 -26 -40 -4 -10 -11 -18 -17 -18 -5 0 -10 -7
-10 -15 0 -23 28 -18 55 11 65 71 106 104 131 104 13 0 46 -9 74 -19z m4412
-39 c20 -8 78 -86 78 -105 0 -7 -22 -19 -50 -26 -48 -12 -51 -12 -70 11 -27
30 -80 105 -80 112 0 5 44 12 85 14 11 0 28 -2 37 -6z m2344 -62 c8 0 14 -8
14 -19 0 -14 6 -17 28 -13 22 4 25 2 15 -9 -19 -20 -16 -32 7 -26 17 4 20 0
19 -31 0 -21 -3 -31 -6 -24 -6 16 -33 15 -33 -2 0 -7 10 -16 23 -20 21 -6 21
-7 -13 -36 -40 -33 -50 -37 -50 -15 0 18 -27 20 -32 3 -3 -9 -13 -7 -34 6 -54
36 -83 86 -48 86 9 0 14 6 11 13 -2 6 -12 11 -21 10 -12 0 -15 4 -12 14 3 8 6
19 6 24 0 5 6 8 13 7 6 -2 12 4 12 12 0 15 48 31 73 24 8 -2 20 -4 28 -4z
m-1097 -110 c84 -28 133 -53 201 -103 141 -104 209 -196 255 -342 15 -49 31
-94 35 -100 19 -28 45 -195 49 -322 1 -28 -6 -78 -16 -110 -9 -32 -17 -60 -18
-63 0 -3 -4 -11 -9 -18 -4 -7 -10 -42 -12 -77 -4 -69 -7 -63 90 -187 27 -35
73 -88 103 -118 56 -58 146 -200 193 -304 55 -124 78 -215 84 -336 4 -63 13
-162 22 -219 20 -137 9 -330 -28 -471 -14 -56 -19 -107 -18 -202 0 -124 -1
-128 -21 -128 -12 0 -23 -8 -26 -20 -3 -12 -14 -20 -25 -20 -12 0 -35 -9 -53
-20 -38 -23 -49 -64 -48 -173 0 -61 3 -71 28 -97 19 -20 31 -45 34 -72 4 -29
11 -43 21 -43 12 0 14 11 12 49 -2 37 -9 56 -32 83 -24 27 -30 43 -30 80 0 43
12 98 30 133 5 9 22 15 46 15 35 0 39 3 44 29 5 28 6 29 23 12 9 -10 17 -22
17 -27 0 -14 20 -11 37 6 20 21 36 15 43 -16 7 -28 50 -41 50 -14 0 9 5 13 11
10 6 -4 9 -30 8 -58 -3 -42 0 -53 14 -55 21 -4 22 -31 2 -78 -8 -20 -13 -39
-10 -43 9 -15 -22 -89 -61 -146 -54 -78 -152 -185 -169 -185 -7 0 -18 -15 -25
-34 -10 -31 -94 -126 -111 -126 -4 0 -34 -17 -66 -38 -71 -47 -135 -67 -278
-88 -173 -25 -228 -30 -255 -22 -124 33 -252 52 -325 48 -44 -3 -156 -5 -250
-4 -165 0 -173 1 -270 34 -55 18 -118 45 -140 60 -22 14 -55 32 -72 39 -18 8
-33 16 -33 20 0 4 -22 15 -49 25 -49 17 -49 18 -40 50 13 47 17 147 7 176 -5
13 -16 55 -24 93 -13 64 -18 72 -84 137 -39 39 -75 70 -79 70 -12 0 -111 115
-111 129 0 6 -4 11 -8 11 -22 0 -85 184 -121 350 -17 80 -39 164 -51 195 -7
17 -15 73 -20 125 -6 83 -3 137 16 280 2 19 5 53 5 76 1 39 16 72 84 181 17
26 78 95 136 153 59 58 111 114 117 126 16 31 42 150 42 195 0 22 -9 61 -21
86 -11 25 -19 47 -16 49 2 2 26 6 53 8 54 5 131 37 203 86 83 57 110 170 72
298 -26 85 -59 127 -139 177 -32 19 -67 45 -79 58 -38 41 -152 94 -218 101
-109 12 -169 27 -207 52 -21 13 -41 24 -45 24 -20 0 -86 55 -107 89 -23 36
-30 62 -27 104 1 17 3 17 27 -2 38 -30 147 -61 214 -61 70 0 191 26 243 52 61
31 117 86 117 117 -1 89 -183 149 -380 126 l-65 -8 32 27 c36 30 73 47 181 81
193 60 277 68 382 37 69 -21 287 -19 440 3 145 21 150 21 285 14 83 -5 140
-14 184 -29z m-2254 13 c6 -17 7 -17 20 0 13 18 15 18 44 1 17 -10 31 -22 31
-26 0 -4 10 -18 23 -30 l22 -23 -23 -3 c-13 -2 -21 -9 -19 -15 3 -7 10 -11 16
-9 17 3 13 -35 -4 -42 -8 -3 -15 -12 -15 -21 0 -8 -7 -15 -15 -15 -8 0 -15 -7
-15 -15 0 -8 -4 -15 -9 -15 -5 0 -16 -3 -24 -6 -12 -4 -14 0 -10 15 4 15 1 21
-11 21 -9 0 -16 -7 -16 -15 0 -8 -9 -15 -20 -15 -11 0 -20 7 -20 16 0 11 -6
13 -19 9 -11 -3 -22 -1 -26 5 -3 5 -2 10 4 10 6 0 8 7 4 16 -4 11 -9 12 -16 5
-18 -18 -28 -12 -21 14 4 15 2 25 -5 25 -6 0 -11 9 -11 20 0 11 5 20 11 20 6
0 9 9 6 19 -2 10 -1 25 4 32 7 11 9 10 9 -3 0 -18 11 -23 23 -11 4 3 2 12 -4
19 -6 8 -6 14 0 18 5 4 12 2 16 -4 4 -7 14 -5 28 5 27 19 33 19 42 -2z m-6018
-159 c37 -30 97 -135 162 -284 51 -116 143 -299 194 -386 47 -80 64 -119 91
-211 6 -18 2 -22 -22 -28 -16 -3 -40 -17 -53 -31 -46 -49 -75 -58 -151 -44
-74 13 -113 6 -178 -34 -28 -17 -48 -20 -100 -18 -165 9 -195 7 -247 -16 -68
-29 -92 -28 -169 9 l-64 31 -71 -26 c-84 -31 -113 -32 -173 -6 -48 20 -87 24
-146 14 -74 -12 -130 37 -111 98 21 69 44 127 101 248 92 199 130 295 140 356
15 88 36 143 88 219 50 73 84 100 143 109 20 3 43 8 52 11 35 14 161 22 314
21 l161 -1 39 -31z m1793 1 c0 -8 5 -15 10 -15 6 0 10 5 10 10 0 25 31 20 60
-10 27 -28 31 -37 25 -66 -5 -27 -3 -34 10 -34 14 0 14 -3 -1 -29 -20 -34 -37
-31 -28 5 7 26 -13 35 -22 9 -5 -12 -14 -9 -44 15 -21 17 -43 30 -49 30 -6 0
-11 6 -11 14 0 8 -9 17 -19 21 -10 3 -21 15 -24 26 -5 17 -2 20 13 16 11 -3
21 1 24 9 7 19 46 18 46 -1z m2353 -57 c49 -45 57 -58 33 -58 -8 0 -21 -8 -28
-19 -18 -26 -115 -85 -163 -99 -22 -7 -74 -20 -115 -31 -41 -10 -91 -26 -110
-34 -19 -8 -52 -23 -73 -32 -89 -39 -238 -64 -362 -60 -89 2 -241 21 -295 35
-19 6 -52 10 -72 10 -46 0 -140 22 -238 55 -41 14 -106 31 -146 36 l-72 11 -4
52 c-2 28 -4 52 -3 54 8 12 442 -12 495 -28 59 -18 247 -24 360 -11 120 14
187 31 280 70 96 42 124 49 240 61 171 18 195 21 199 26 11 11 30 1 74 -38z
m2927 17 c70 -24 90 -37 90 -58 0 -25 -55 -75 -108 -98 -72 -31 -77 -28 -77
45 0 60 -2 67 -35 102 l-35 37 60 -7 c33 -3 80 -13 105 -21z m-5347 -72 c4 -6
32 -24 63 -40 93 -46 152 -128 174 -240 23 -116 -7 -196 -67 -176 -40 13 -58
56 -54 128 2 53 -2 69 -34 130 -20 39 -54 86 -75 105 -40 35 -81 114 -72 138
3 10 11 7 31 -10 14 -13 29 -28 34 -35z m12249 42 c159 -7 178 -10 183 -26 4
-10 1 -28 -5 -40 -10 -19 -17 -20 -53 -14 -54 8 -65 9 -102 0 -16 -4 -122 -8
-235 -8 l-205 -1 -3 26 c-2 19 4 31 27 48 17 12 31 19 31 15 0 -3 8 -2 17 3
17 10 45 10 345 -3z m-3301 -158 c-6 -6 -11 -20 -11 -31 -1 -32 -26 -59 -57
-61 -15 -1 -69 -6 -119 -10 l-91 -7 -5 26 c-7 34 -4 124 4 132 4 3 27 -2 52
-11 49 -19 98 -17 181 7 l50 14 3 -24 c2 -13 -1 -29 -7 -35z m-354 35 c-22
-24 -21 -32 1 -32 12 0 18 -8 20 -25 1 -18 -2 -23 -13 -19 -9 4 -15 0 -15 -9
0 -8 7 -17 15 -21 18 -7 20 -44 3 -42 -7 0 -13 -3 -13 -9 0 -5 6 -9 13 -9 6 1
12 -9 12 -22 0 -15 -6 -24 -15 -24 -8 0 -15 -7 -15 -15 0 -8 5 -15 10 -15 15
0 12 -26 -5 -40 -11 -9 -12 -16 -4 -26 7 -9 7 -19 -1 -34 -6 -11 -8 -25 -5
-30 10 -17 -6 -80 -21 -80 -8 0 -14 -7 -14 -15 0 -8 7 -15 15 -15 8 0 15 -9
15 -20 0 -12 -7 -20 -16 -20 -9 0 -14 -6 -11 -12 2 -7 10 -12 16 -10 6 1 11
-10 11 -24 0 -14 -4 -23 -9 -19 -16 9 -24 -15 -10 -31 10 -12 6 -22 -22 -57
-18 -23 -39 -46 -46 -50 -7 -4 -13 -15 -13 -23 0 -24 -24 -11 -34 18 -12 33 0
78 20 78 9 0 14 6 11 13 -2 6 -11 11 -19 11 -11 -1 -15 7 -14 22 1 16 7 24 19
24 21 0 23 18 2 26 -19 8 -19 19 1 39 12 11 14 19 6 27 -6 6 -7 20 -3 32 4 11
6 105 5 209 -1 162 1 187 14 185 8 -2 17 3 19 10 3 7 -3 12 -14 12 -15 0 -16
2 -3 10 8 5 26 6 39 3 17 -4 22 -2 19 8 -3 8 6 19 21 26 38 17 46 15 28 -5z
m-7736 -103 c137 -18 143 -29 78 -129 -73 -113 -117 -158 -176 -180 -30 -11
-62 -27 -70 -36 -25 -24 -38 -11 -41 41 -4 61 18 130 69 214 21 36 39 73 39
83 0 21 -5 21 101 7z m11505 -48 c-18 -28 1 -254 31 -378 5 -23 3 -23 -84 -23
l-89 0 -2 115 c0 70 4 126 11 143 13 30 116 150 130 151 5 1 6 -3 3 -8z m-523
-12 c53 1 97 -2 97 -7 0 -5 -24 -10 -52 -11 -29 -1 -82 -6 -118 -12 -73 -12
-605 -17 -616 -6 -17 17 2 19 214 32 47 3 88 7 90 10 3 2 68 2 146 -2 78 -4
185 -6 239 -4z m-11446 -30 c12 -7 35 -30 49 -51 27 -39 27 -39 7 -53 -11 -8
-23 -25 -27 -39 -3 -13 -16 -30 -28 -38 -43 -27 -193 -70 -248 -71 -93 -1
-200 59 -200 114 0 21 81 104 109 112 18 4 21 0 21 -31 0 -95 45 -162 109
-162 71 0 109 79 92 189 -4 28 -6 52 -4 55 6 6 96 -13 120 -25z m7543 -14 c29
-4 149 -8 455 -14 27 -1 31 -5 30 -27 l-2 -27 -99 2 c-54 1 -153 -3 -219 -9
-132 -12 -326 -13 -480 -1 -55 4 -138 4 -185 0 -47 -4 -134 -10 -194 -12 -119
-5 -130 -1 -145 50 l-8 28 181 2 c100 1 195 7 211 12 30 11 381 7 455 -4z
m3145 -16 c17 -6 39 -14 50 -16 37 -8 559 -8 600 -1 22 4 90 10 150 13 l110 5
38 -46 c36 -44 37 -48 37 -123 0 -43 3 -99 6 -124 6 -41 4 -46 -17 -53 -13 -4
-78 -6 -144 -5 -66 1 -169 -3 -230 -9 -60 -6 -171 -13 -245 -15 l-135 -4 -55
57 c-30 32 -88 86 -127 122 -72 64 -98 101 -109 158 -4 22 -1 35 12 49 11 11
21 16 24 12 3 -4 19 -13 35 -20z m-2295 -71 c0 -2 -20 -26 -45 -52 -25 -27
-55 -68 -67 -92 -12 -25 -30 -52 -40 -61 -18 -16 -18 -15 -14 33 3 27 10 76
17 109 l12 61 68 3 c38 1 69 1 69 -1z m-4052 -23 c62 -1 115 -5 118 -8 16 -15
-14 -25 -98 -30 -51 -4 -110 -11 -130 -17 -20 -6 -126 -13 -235 -15 -215 -5
-250 -7 -334 -23 -63 -12 -315 -16 -401 -6 -44 5 -59 11 -63 25 -7 20 -64 49
-97 49 -31 0 -78 -29 -88 -55 -10 -27 -11 -27 -155 -30 -44 -1 -115 -5 -157
-10 l-77 -8 -15 38 c-9 21 -16 41 -16 45 0 25 211 34 840 36 278 1 543 7 590
12 47 6 112 8 145 5 33 -3 111 -6 173 -8z m356 8 c3 -4 35 -8 69 -9 139 -4
220 -32 307 -104 25 -21 61 -46 80 -55 84 -43 144 -146 141 -244 -2 -106 -33
-154 -135 -210 -72 -39 -77 -41 -174 -42 -63 -1 -108 4 -123 11 -31 17 -118
40 -151 40 -40 0 -34 15 11 29 22 6 63 29 92 51 30 22 57 40 62 40 5 0 7 10 5
23 -5 35 -40 33 -74 -3 -34 -37 -81 -59 -132 -61 -20 -1 -44 -6 -53 -10 -20
-10 -65 21 -74 52 -4 12 -22 36 -41 54 -33 32 -43 55 -26 55 21 0 127 -42 142
-55 16 -15 50 -11 50 5 0 16 -40 41 -96 60 -96 33 -90 30 -74 40 8 5 19 5 25
1 5 -5 50 -12 99 -16 48 -4 103 -13 121 -21 35 -14 45 -11 45 18 0 11 -7 18
-18 18 -10 0 -23 5 -30 12 -7 7 -49 13 -107 14 -53 1 -98 4 -101 7 -3 3 9 13
27 22 35 19 148 24 230 11 50 -7 77 9 65 39 -4 13 -10 14 -26 5 -11 -6 -25 -8
-31 -4 -24 14 -168 14 -210 -1 -51 -18 -49 -18 -49 -1 0 20 -23 36 -55 38 -29
3 -45 29 -45 72 0 32 57 82 115 100 84 26 126 31 139 19z m7088 -70 c1 -38 0
-111 -1 -164 l-3 -95 32 -32 c17 -18 39 -32 48 -32 26 -1 66 -35 60 -52 -13
-33 -217 -66 -316 -51 -27 5 -31 8 -20 20 7 8 35 30 64 48 39 25 55 43 64 71
13 39 14 51 8 232 -2 62 -1 115 1 118 2 2 17 4 33 4 28 0 28 0 30 -67z m-4317
45 c33 0 174 3 314 7 l253 8 -5 -79 c-3 -44 -8 -92 -11 -109 -3 -16 -9 -65
-12 -108 -5 -56 -10 -74 -18 -68 -19 16 -264 19 -325 4 -38 -8 -165 -12 -416
-13 -203 0 -377 -5 -396 -10 -19 -6 -60 -10 -91 -10 -66 0 -71 10 -42 70 14
28 16 53 10 166 l-7 134 68 1 c37 1 97 5 133 9 36 5 160 6 275 3 116 -3 237
-6 270 -5z m-7376 -240 c1 -31 -3 -60 -9 -63 -5 -3 -10 -2 -10 3 0 13 -47 32
-80 32 -39 0 -78 -19 -85 -41 -6 -18 -27 -15 -90 11 -78 33 -126 44 -191 44
l-73 1 -3 88 c-2 48 -2 87 -1 87 1 0 18 -11 38 -24 34 -23 126 -56 157 -56 8
0 56 11 107 24 115 30 197 70 207 99 9 26 32 -115 33 -205z m4317 135 l9 -38
-44 -15 c-24 -8 -53 -27 -64 -42 -19 -26 -19 -29 -3 -71 18 -47 46 -67 96 -67
21 0 30 -5 30 -16 0 -9 9 -32 21 -50 l21 -34 -69 0 c-38 0 -104 -4 -148 -10
-130 -16 -202 -19 -570 -25 -192 -4 -364 -10 -381 -14 -68 -18 -83 21 -85 224
l-1 140 39 -2 c135 -7 345 0 421 13 55 10 152 16 262 16 96 1 213 6 260 13 47
7 110 13 141 14 l55 1 10 -37z m-1417 -33 c11 0 13 -25 8 -142 -4 -79 -9 -166
-13 -194 l-6 -51 -57 1 c-31 0 -93 -3 -138 -7 -72 -6 -82 -4 -87 11 -8 29 -15
83 -21 172 -4 47 -13 109 -22 138 -8 30 -12 56 -9 59 3 4 36 8 74 11 37 2 69
5 71 7 2 3 45 2 95 0 50 -3 97 -5 105 -5z m-3479 -57 c0 -19 -5 -33 -12 -34
-7 -1 -67 -3 -133 -5 -66 -2 -141 -8 -166 -14 -59 -14 -269 -17 -474 -7 -88 4
-211 9 -273 11 -112 3 -113 3 -128 31 -8 15 -14 29 -14 31 0 3 189 4 415 2
345 -4 435 -2 497 11 16 3 87 6 158 6 l130 0 0 -32z m3675 -134 c0 -131 3
-163 15 -172 21 -17 90 -124 90 -141 0 -7 7 -30 15 -49 20 -49 19 -55 -5 -24
-61 78 -178 35 -228 -83 -17 -41 -9 -191 13 -244 17 -40 78 -96 106 -96 41 0
109 52 137 105 26 50 28 -206 2 -282 -18 -51 -51 -66 -161 -71 -174 -8 -201 9
-213 138 -3 38 -10 80 -16 94 -14 38 -18 130 -9 251 11 154 12 156 48 229 29
59 33 81 46 223 8 87 15 185 15 218 0 46 3 56 12 47 17 -17 80 -15 104 3 10 8
21 14 24 15 3 0 5 -72 5 -161z m-2952 111 c4 -16 16 -50 27 -74 30 -67 28 -73
-27 -69 -25 3 -52 11 -60 19 -8 8 -23 19 -34 24 -19 11 -22 34 -12 92 5 28 17
35 69 37 27 1 32 -3 37 -29z m-1518 -81 c110 -5 207 -10 215 -11 54 -3 208 7
263 17 37 7 123 12 193 11 l127 -1 13 -45 c8 -25 16 -58 18 -75 3 -16 12 -55
21 -85 8 -30 15 -67 15 -82 0 -44 27 -133 52 -172 37 -58 86 -66 242 -41 120
19 164 38 176 73 27 75 48 76 188 9 25 -12 22 -38 -9 -73 -11 -11 -19 -26 -19
-32 0 -16 -13 -18 -250 -42 -113 -12 -236 -25 -275 -31 -76 -10 -320 -30 -425
-34 -97 -5 -363 -24 -470 -35 -98 -11 -334 -29 -360 -28 -14 0 -103 -6 -275
-18 -44 -3 -134 -11 -200 -19 -66 -8 -156 -15 -200 -16 l-80 -2 2 104 c1 57 3
168 4 247 l1 143 47 -8 c89 -15 162 -9 218 20 54 28 112 35 173 23 38 -8 96
13 159 59 19 14 48 25 66 25 42 0 45 4 29 48 -7 20 -13 49 -14 65 l0 27 78 -5
c42 -3 167 -11 277 -16z m1030 -15 c39 -15 91 -31 118 -37 51 -12 58 -21 27
-37 -16 -8 -20 -21 -20 -58 0 -27 7 -57 15 -68 8 -10 15 -28 15 -38 0 -11 6
-27 14 -35 7 -9 18 -29 23 -46 9 -27 14 -30 50 -29 40 0 40 0 30 -27 -11 -28
-47 -43 -127 -53 -19 -2 -62 -9 -96 -17 -58 -12 -63 -11 -98 11 -44 27 -49 38
-66 150 -7 47 -21 114 -31 149 -10 35 -19 73 -19 83 0 11 -5 29 -11 40 -9 16
-8 23 2 29 27 17 105 9 174 -17z m284 2 c15 -8 33 -22 40 -30 8 -9 22 -16 34
-16 11 0 34 -8 51 -19 18 -10 71 -24 126 -31 52 -7 103 -16 113 -22 15 -8 44
-60 61 -111 3 -10 1 -38 -5 -62 -12 -48 -6 -45 -115 -59 -42 -6 -118 14 -162
42 -26 17 -136 12 -155 -7 -13 -13 -44 -14 -51 -2 -4 5 7 15 24 23 33 14 40
45 14 55 -9 3 -25 1 -36 -6 -18 -11 -38 -7 -38 8 0 4 18 15 41 24 30 12 40 21
37 34 -4 24 -41 28 -72 8 -25 -16 -25 -16 -32 20 -8 43 1 54 46 60 18 2 37 8
42 13 11 11 -17 42 -38 42 -20 0 -18 27 4 39 23 14 38 13 71 -3z m7982 -222
c-16 -27 -35 -70 -42 -95 -12 -43 -15 -46 -47 -47 -19 -1 -66 3 -104 8 -118
17 -149 61 -83 119 59 51 83 63 173 86 l87 23 23 -23 24 -22 -31 -49z m-10690
-36 c6 -89 11 -477 7 -503 -3 -19 -20 -33 -43 -34 -11 -1 -19 509 -9 542 8 26
44 22 45 -5z m88 3 c22 -17 23 -24 29 -182 6 -158 5 -319 0 -324 -2 -1 -20 -6
-42 -9 -38 -7 -39 -7 -31 21 8 29 9 98 6 293 -3 174 -2 220 7 220 4 0 18 -9
31 -19z m221 -50 c0 -6 -5 -10 -11 -8 -6 1 -14 -4 -16 -10 -3 -7 2 -13 9 -13
19 0 34 -64 30 -131 -3 -51 -5 -56 -22 -52 -23 6 -27 -15 -5 -23 20 -8 19 -34
-2 -50 -17 -12 -17 -13 0 -19 9 -4 17 -16 17 -27 0 -10 -4 -17 -9 -13 -20 12
-22 -18 -2 -36 15 -14 21 -32 21 -62 1 -23 2 -58 3 -77 3 -41 -2 -57 -13 -40
-4 7 -13 9 -19 6 -16 -10 -14 -26 4 -26 28 0 15 -26 -26 -53 -50 -33 -82 -28
-100 15 -10 24 -10 31 0 38 10 6 10 12 0 29 -11 17 -11 25 -1 41 7 12 8 20 2
20 -14 0 -13 33 2 48 8 8 8 15 -2 26 -7 9 -9 23 -5 33 10 24 10 82 1 112 -5
13 -4 27 2 33 7 7 7 16 -1 29 -9 14 -9 24 -1 36 8 13 8 23 0 35 -8 13 -8 23 1
38 8 12 9 21 3 25 -13 8 -13 45 0 45 7 0 7 7 0 21 -7 11 -8 24 -4 27 4 4 9 1
11 -5 6 -17 33 -17 33 0 0 7 15 20 32 29 31 14 33 14 50 -8 10 -12 18 -27 18
-33z m6370 3 c108 -37 137 -122 59 -168 -39 -23 -234 -34 -298 -16 -48 13
-101 58 -101 85 0 35 53 68 146 91 107 27 135 28 194 8z m6847 -45 c32 -7 83
-8 155 -2 60 5 118 5 133 0 l26 -9 -43 -39 c-54 -49 -100 -62 -210 -61 -98 1
-180 20 -251 55 -37 19 -44 27 -34 35 34 28 146 39 224 21z m363 -119 c0 -51
-6 -95 -17 -121 -26 -66 -50 -73 -303 -75 l-214 -2 -31 34 c-23 25 -34 50 -42
96 -12 67 -13 108 -2 108 3 0 39 -14 80 -31 57 -23 98 -32 174 -38 89 -6 120
-4 202 14 12 3 45 25 74 50 29 25 59 45 66 45 10 0 13 -21 13 -80z m-7936 30
c37 -33 44 -52 55 -152 5 -50 4 -68 -5 -68 -6 0 -18 -14 -25 -32 -21 -52 -67
-98 -98 -98 -54 0 -90 62 -98 166 -7 94 8 145 56 185 45 37 72 37 115 -1z
m4322 -21 c3 -5 15 -9 27 -9 48 -1 112 -77 96 -114 -14 -30 -64 -62 -134 -86
-75 -25 -103 -25 -196 -1 -92 24 -107 30 -142 53 -22 16 -26 24 -21 46 9 38
31 60 88 89 68 34 264 50 282 22z m-3917 -28 c49 -44 103 -55 246 -49 103 5
130 9 158 27 19 12 37 21 40 21 3 0 4 -17 2 -37 -2 -21 -4 -43 -4 -50 -1 -8
-20 -12 -58 -11 -32 0 -101 -7 -153 -15 -106 -17 -228 -21 -249 -8 -12 8 -31
151 -19 151 2 0 19 -13 37 -29z m392 -143 c48 -14 52 -36 6 -30 -46 5 -101
-44 -91 -82 5 -21 3 -26 -14 -26 -26 0 -42 -21 -41 -51 1 -13 -6 -41 -15 -61
-15 -34 -15 -42 -1 -74 13 -32 13 -38 -1 -59 -10 -16 -14 -34 -9 -53 4 -18 1
-33 -7 -39 -22 -18 -81 -21 -124 -6 -34 12 -46 23 -68 65 -23 44 -28 70 -37
201 -5 83 -12 162 -16 176 -5 21 -3 23 15 19 30 -8 303 9 332 21 32 13 27 13
71 -1z m6159 -76 c98 -54 130 -68 190 -82 62 -14 147 -47 170 -66 8 -7 41 -15
73 -19 67 -9 114 6 119 37 4 29 34 46 49 31 10 -10 9 -17 -4 -31 -18 -19 -23
-67 -9 -76 5 -3 24 10 42 29 33 34 35 34 59 19 36 -23 51 -44 51 -71 0 -19 -5
-23 -33 -23 -46 0 -76 -23 -61 -47 9 -14 24 -18 65 -18 47 0 54 -3 54 -20 0
-16 -8 -21 -45 -25 -36 -4 -46 -9 -48 -26 -3 -18 5 -25 38 -36 37 -12 40 -15
27 -32 -13 -17 -15 -18 -46 -1 -31 15 -35 15 -50 1 -20 -20 -7 -45 34 -65 23
-11 25 -15 13 -27 -18 -18 -71 -4 -105 28 -24 22 -32 23 -196 23 -160 0 -176
2 -227 24 -92 41 -158 88 -248 177 -47 48 -96 90 -109 95 -13 5 -23 15 -23 24
0 8 -11 17 -25 21 -30 8 -51 68 -36 107 19 50 120 101 181 91 19 -3 64 -22
100 -42z m-6096 -19 c45 -22 61 -38 101 -99 37 -58 54 -75 83 -85 86 -28 257
-136 273 -172 6 -13 6 -63 2 -127 l-8 -105 -40 3 c-61 6 -97 25 -177 95 -91
79 -147 98 -217 75 -33 -12 -53 -13 -83 -5 -31 8 -36 12 -23 21 8 6 16 22 17
36 3 21 -2 26 -24 28 -17 2 -34 -4 -47 -17 -27 -27 -39 -26 -47 3 -8 34 2 46
37 46 38 0 69 16 69 35 0 16 -42 30 -64 22 -24 -9 -48 37 -36 69 8 21 13 24
25 14 19 -16 59 -9 63 12 2 12 -8 22 -32 32 -20 8 -36 19 -36 24 0 17 33 23
49 8 28 -24 60 -29 67 -11 5 11 -6 28 -32 52 l-39 35 24 19 c30 24 30 24 95
-8z m6912 -13 c-17 -19 -42 -52 -55 -73 l-23 -37 -28 20 c-15 11 -35 20 -44
20 -9 0 -16 4 -16 10 0 14 -58 42 -78 38 -13 -3 -52 38 -52 55 0 1 74 2 164 2
l164 0 -32 -35z m3785 -61 c65 -66 109 -132 109 -165 0 -52 -33 -133 -67 -166
-19 -18 -33 -28 -31 -23 2 6 0 11 -4 13 -18 5 -28 1 -28 -13 0 -8 6 -15 12
-15 7 0 -11 -16 -39 -35 -54 -36 -103 -92 -103 -116 0 -25 -49 -69 -77 -69
-25 0 -25 1 -9 25 27 41 20 61 -20 56 -7 -1 -14 8 -17 19 -7 29 -35 25 -65
-10 -34 -39 -49 -39 -20 0 16 22 19 33 11 41 -15 15 -63 3 -63 -16 0 -18 -14
-27 -34 -19 -24 9 -19 26 15 55 33 27 33 49 0 49 -10 0 -24 -7 -31 -15 -16
-19 -25 -19 -44 0 -12 12 -13 22 -5 45 12 33 48 57 133 89 31 11 75 30 96 41
34 17 48 19 95 12 66 -11 92 -7 125 18 20 15 22 22 13 31 -10 10 -24 10 -60 2
-53 -13 -83 -3 -83 26 0 10 -8 29 -19 42 -32 41 -42 89 -28 129 21 60 20 60
108 37 72 -18 87 -26 130 -68z m-12365 -93 c-4 -19 -19 -65 -35 -103 -42 -104
-133 -172 -316 -236 -103 -36 -149 -40 -323 -26 -127 9 -167 16 -212 36 -30
13 -57 27 -60 31 -3 4 -27 25 -55 47 -27 22 -60 49 -73 60 -48 41 -82 124 -63
155 8 12 18 7 51 -28 27 -27 56 -45 83 -52 23 -6 49 -13 57 -16 8 -3 33 -8 55
-11 22 -3 47 -9 56 -14 31 -16 115 -21 184 -10 101 16 176 30 205 41 14 5 48
11 75 14 28 3 73 12 101 21 47 14 181 79 229 112 35 23 48 17 41 -21z m9294
-67 c-6 -30 -28 -107 -48 -173 -33 -106 -40 -120 -64 -128 -22 -8 -28 -16 -28
-38 0 -28 -22 -60 -40 -60 -6 0 -5 11 0 26 14 36 12 54 -5 61 -18 6 -44 -23
-45 -49 0 -11 -8 -18 -20 -18 -21 0 -28 24 -10 35 23 14 9 52 -16 43 -4 -2
-10 7 -15 20 -5 12 -17 22 -27 22 -18 0 -62 -49 -62 -70 0 -14 -33 -13 -48 2
-27 27 -2 93 52 137 17 14 39 35 48 46 9 11 31 37 49 58 41 49 105 86 204 118
44 15 81 25 83 24 1 -1 -2 -26 -8 -56z m-13959 37 c130 -23 189 -65 189 -132
0 -60 -50 -90 -170 -100 -25 -2 -97 -8 -160 -14 -154 -14 -413 -8 -465 11 -35
13 -40 18 -38 44 2 22 17 43 60 82 32 29 74 60 93 69 19 9 48 22 64 30 37 18
66 18 66 0 0 -8 16 -28 37 -46 31 -28 42 -31 74 -27 42 5 119 59 119 83 0 18
31 18 131 0z m5894 -176 c30 -48 82 -66 165 -55 91 11 128 7 161 -17 22 -16
44 -23 75 -22 24 0 44 -2 44 -5 0 -17 -142 -72 -210 -81 -117 -17 -298 3 -399
43 -47 18 -57 27 -59 49 -4 33 50 95 88 102 14 3 39 9 55 15 48 15 53 13 80
-29z m7600 -106 c-32 -76 -7 -124 65 -124 22 0 48 -4 58 -9 36 -18 118 -41
174 -48 30 -4 38 -1 48 16 18 34 30 15 30 -47 0 -32 7 -82 15 -112 38 -139 48
-238 32 -345 -25 -176 -31 -283 -18 -325 5 -19 13 -51 16 -70 3 -19 13 -57 20
-85 8 -27 16 -63 16 -80 2 -36 36 -142 55 -170 20 -28 18 -32 -23 -54 -48 -25
-123 -96 -123 -117 0 -30 -33 -115 -49 -127 -28 -21 -57 -71 -55 -96 2 -31 47
-71 78 -71 13 0 26 -7 29 -14 10 -26 63 -47 91 -36 22 8 26 7 27 -8 1 -9 3
-41 4 -71 5 -73 34 -151 70 -185 28 -25 157 -88 247 -119 106 -37 174 -45 416
-52 118 -3 226 -8 241 -11 27 -6 28 -8 34 -87 6 -86 1 -260 -8 -288 -7 -21
-49 -27 -225 -34 -74 -3 -162 -10 -195 -15 -90 -14 -333 -21 -805 -24 -341 -2
-441 -5 -505 -18 -138 -28 -207 -37 -315 -43 -58 -4 -146 -10 -197 -16 -51 -5
-139 -9 -197 -9 -62 0 -129 -6 -163 -15 -75 -20 -344 -40 -406 -31 l-48 7 0
77 c0 42 0 91 0 107 0 17 0 118 0 226 l2 196 47 7 c56 7 173 36 259 64 34 11
64 18 67 15 2 -2 17 2 33 10 16 9 60 25 98 37 66 21 218 101 231 121 3 5 14 9
24 9 27 0 87 55 110 100 11 21 25 40 33 43 18 7 17 252 -1 285 -9 16 -10 27
-2 41 5 11 10 31 10 44 0 14 6 27 14 30 8 3 17 19 21 36 4 17 15 36 26 41 10
6 19 17 19 24 0 8 7 19 16 27 11 9 14 24 12 47 -3 21 3 49 14 71 28 55 24 93
-14 122 -30 22 -43 24 -133 25 -62 0 -109 5 -124 13 -13 7 -41 18 -62 24 l-39
12 55 60 c30 32 55 61 55 64 0 3 26 30 59 61 32 32 67 70 77 86 10 16 35 49
55 74 49 61 73 104 100 175 12 33 25 65 29 70 4 6 17 47 28 92 28 112 35 123
78 123 64 0 154 52 154 89 0 30 -41 82 -75 97 -28 11 -35 20 -35 42 0 37 36
70 80 74 19 2 86 4 148 6 l112 2 -15 -36z m-459 -90 c23 -10 53 -14 76 -11 25
3 41 0 49 -9 6 -8 18 -14 25 -14 7 0 21 -12 30 -26 16 -24 16 -26 -5 -47 -20
-20 -31 -22 -159 -22 -75 0 -145 3 -154 8 -20 8 -24 27 -7 27 6 0 30 14 55 30
32 23 44 38 44 55 0 30 -2 29 46 9z m-2866 -139 c12 -36 39 -97 60 -135 21
-38 46 -91 56 -117 9 -26 30 -67 46 -91 15 -24 28 -44 28 -46 0 -2 -23 -6 -52
-9 -111 -13 -171 -138 -143 -292 13 -69 45 -117 141 -215 52 -52 111 -113 132
-135 21 -22 46 -44 55 -50 14 -9 8 -19 -42 -71 -60 -63 -87 -101 -77 -111 3
-3 -3 -22 -14 -43 -27 -52 -22 -241 8 -316 54 -133 99 -197 178 -246 61 -39
258 -108 307 -108 52 0 91 -7 367 -61 58 -11 145 -25 193 -29 49 -5 91 -10 93
-12 10 -11 25 -213 30 -414 5 -204 4 -226 -10 -221 -8 3 -18 2 -21 -3 -3 -5
-13 -9 -23 -9 -9 0 -64 -2 -122 -5 -58 -3 -253 -8 -435 -11 -314 -5 -450 -11
-805 -35 -271 -18 -413 -35 -550 -66 -36 -8 -137 -17 -225 -19 -295 -9 -446
-22 -690 -61 -132 -22 -180 -25 -275 -20 -154 8 -164 11 -155 50 11 56 15 120
19 332 2 115 7 216 10 225 9 22 49 29 155 29 151 0 279 32 411 103 25 13 59
27 75 31 17 4 79 32 138 62 60 30 115 54 123 54 19 0 130 116 158 166 28 50
47 138 48 224 1 69 -5 106 -28 157 -8 17 -14 35 -14 40 0 5 -16 26 -35 47 -19
21 -35 42 -35 47 0 4 25 34 55 66 30 32 67 76 82 98 15 22 42 57 60 78 21 24
33 47 33 67 0 16 7 51 16 77 18 53 21 120 5 136 -6 6 -11 32 -11 58 0 37 -5
51 -21 63 -12 8 -27 12 -35 9 -7 -3 -25 4 -39 16 -21 15 -32 18 -51 11 -13 -5
-24 -8 -24 -7 -1 1 -1 58 -1 127 -1 78 5 151 15 195 17 76 46 320 46 383 l0
39 128 7 c70 4 239 9 377 12 137 3 252 7 254 10 8 7 9 5 31 -61z m2503 -925
c37 -20 51 -22 124 -16 101 8 133 -6 133 -60 0 -41 -10 -48 -46 -30 -19 11
-33 12 -46 5 -29 -16 -21 -36 22 -55 47 -21 52 -31 34 -72 -12 -28 -34 -44
-34 -24 0 9 -49 32 -67 32 -22 0 -27 -29 -8 -50 10 -11 26 -20 37 -20 13 0 18
-7 18 -27 -1 -24 -2 -26 -13 -12 -16 21 -51 39 -76 39 -31 0 -26 -32 8 -51 27
-16 47 -64 30 -75 -11 -6 -65 19 -115 56 -39 28 -47 29 -140 30 -127 2 -166
14 -227 70 -57 52 -61 74 -28 145 11 24 21 49 21 53 0 5 11 19 24 31 18 17 41
24 100 30 42 4 81 12 87 18 18 18 114 7 162 -17z m-5706 -36 c18 -8 47 -14 65
-13 18 1 44 -1 58 -5 48 -13 120 -51 120 -62 0 -7 7 -14 14 -17 8 -3 20 -25
25 -49 6 -24 16 -58 22 -77 15 -45 13 -119 -5 -161 -26 -62 -143 -78 -261 -34
-72 26 -125 31 -208 21 -44 -5 -49 -4 -57 18 -14 37 -3 53 33 51 28 -1 32 2
32 24 0 21 -4 25 -27 23 -19 -1 -28 3 -28 13 0 13 11 18 37 15 7 -1 16 7 22
17 13 25 -4 42 -41 42 -31 0 -36 11 -13 30 9 8 28 10 53 5 32 -5 41 -3 46 11
9 23 -6 37 -39 37 -39 0 -50 30 -28 75 29 59 98 73 180 36z m7107 -309 c15
-14 30 -25 34 -25 4 -1 31 -22 59 -49 43 -39 66 -51 120 -65 38 -10 75 -20 83
-22 8 -3 26 -14 40 -25 l25 -21 -27 -23 c-14 -12 -33 -36 -42 -53 -14 -27 -19
-30 -40 -22 -31 11 -49 -8 -41 -43 5 -20 1 -29 -20 -43 -24 -16 -80 -22 -92
-10 -3 3 1 16 9 28 26 42 28 57 8 68 -10 5 -26 7 -35 4 -19 -8 -45 -55 -45
-84 0 -17 -6 -20 -39 -20 -47 0 -57 10 -30 33 22 20 24 46 5 72 -18 25 -42 14
-59 -27 -20 -49 -42 -64 -72 -50 -14 7 -25 15 -25 19 0 5 18 27 40 49 37 38
38 42 24 62 -19 28 -40 18 -79 -37 -30 -44 -58 -52 -75 -22 -13 26 -5 45 34
75 35 26 45 46 71 139 14 51 21 61 62 87 57 36 72 37 107 5z m-3640 -139 c26
-30 155 -106 178 -106 4 0 35 -13 70 -29 132 -62 257 -110 324 -126 38 -9 85
-20 104 -25 19 -4 55 -11 80 -15 25 -4 54 -9 65 -11 33 -7 632 -4 733 3 51 3
95 10 98 14 3 5 13 9 23 9 10 0 42 13 72 28 30 15 108 45 174 67 234 74 289
98 347 149 26 22 47 47 48 54 0 22 19 13 35 -18 19 -37 19 -70 1 -70 -8 0 -27
-10 -43 -22 -96 -77 -288 -158 -513 -217 -74 -19 -271 -59 -325 -65 -27 -3
-77 -10 -110 -16 -132 -22 -330 -9 -554 36 -69 14 -178 34 -241 44 -193 31
-231 42 -375 110 -33 16 -77 34 -98 40 -20 7 -60 33 -87 58 -40 38 -50 54 -51
82 -3 73 1 75 45 26z m5834 -69 c-18 -15 -40 -34 -48 -42 -31 -28 -86 -61
-150 -89 -36 -16 -74 -35 -85 -41 -11 -7 -63 -25 -115 -40 -52 -15 -106 -33
-120 -40 -14 -7 -41 -16 -60 -20 -19 -4 -41 -11 -50 -15 -35 -18 -102 -29
-215 -35 -66 -4 -163 -13 -215 -21 -112 -16 -400 -28 -416 -17 -14 10 -25 65
-16 80 6 9 20 9 52 2 29 -7 142 -9 310 -5 278 6 300 8 365 26 22 6 63 16 90
21 82 17 418 141 489 181 11 5 40 21 65 35 25 14 53 33 63 44 9 10 21 19 27
19 6 0 21 14 33 31 l23 31 3 -38 c3 -34 -1 -43 -30 -67z m-1325 45 c12 -11 14
-19 7 -26 -5 -5 -10 -16 -10 -24 0 -8 -14 -43 -30 -78 -25 -52 -42 -72 -93
-108 -83 -59 -113 -100 -98 -133 20 -44 14 -82 -15 -93 -58 -23 -98 -2 -59 30
23 19 15 54 -13 58 -36 5 -75 -36 -68 -71 5 -23 1 -30 -20 -39 -20 -9 -28 -9
-40 4 -15 14 -14 18 1 42 21 32 13 56 -19 56 -17 0 -28 -9 -40 -35 -11 -21
-26 -37 -42 -41 -36 -9 -37 -2 -4 33 36 38 38 59 8 66 -27 7 -63 -23 -72 -59
-5 -17 -16 -25 -40 -29 -90 -17 -101 23 -22 86 39 32 59 57 71 89 54 147 89
199 155 229 43 20 71 27 220 56 80 15 198 8 223 -13z m1322 -144 c-13 -29 -39
-72 -57 -95 -34 -44 -42 -48 -198 -89 -36 -9 -115 -34 -177 -55 -61 -22 -118
-39 -127 -39 -9 0 -24 -4 -34 -9 -36 -18 -125 -42 -187 -51 -36 -6 -94 -14
-130 -20 -36 -5 -131 -12 -213 -15 -81 -2 -196 -11 -257 -19 -60 -8 -137 -15
-170 -16 -70 -1 -175 10 -175 19 0 3 13 12 29 19 22 10 40 11 66 3 43 -12 91
1 120 33 17 18 32 21 100 23 145 3 298 13 400 28 55 8 136 15 180 16 44 1 105
8 135 15 96 22 392 124 451 155 31 16 64 29 73 29 9 0 16 4 16 8 0 4 15 13 33
20 17 6 52 30 77 51 62 55 74 52 45 -11z m-9462 -16 c59 -96 121 -143 276
-211 75 -34 235 -77 336 -92 33 -5 80 -13 105 -19 25 -5 97 -16 160 -24 63 -9
151 -20 195 -27 135 -19 498 1 650 36 39 9 126 27 195 40 241 46 425 123 515
215 72 73 81 77 81 32 0 -26 -6 -41 -21 -52 -12 -8 -30 -23 -42 -34 -11 -10
-32 -28 -45 -40 -34 -29 -253 -139 -308 -155 -101 -29 -194 -51 -240 -57 -14
-2 -50 -8 -80 -13 -30 -5 -95 -12 -144 -15 -49 -4 -93 -9 -98 -12 -19 -12
-256 -31 -338 -27 -47 2 -128 11 -180 19 -107 17 -124 19 -305 35 -138 12
-259 39 -313 70 -18 10 -37 19 -42 19 -5 0 -66 25 -136 54 -108 47 -134 62
-173 105 -86 92 -98 119 -92 199 2 20 6 15 44 -46z m3702 -16 c22 -10 54 -24
70 -31 17 -7 52 -23 80 -35 77 -35 93 -40 212 -71 62 -16 128 -29 147 -29 20
0 102 -13 183 -29 266 -53 477 -63 663 -33 36 6 83 13 105 16 22 3 51 8 65 11
49 10 76 14 113 20 21 3 46 9 55 14 9 5 44 14 77 21 33 7 69 16 80 20 11 4 52
18 90 30 39 12 127 51 198 86 70 35 134 64 141 64 8 0 17 6 19 13 11 25 7 -37
-5 -74 -10 -36 -16 -41 -89 -69 -43 -16 -85 -30 -94 -30 -8 0 -15 -4 -15 -9 0
-5 -16 -15 -35 -21 -19 -6 -35 -16 -35 -21 0 -5 -9 -9 -19 -9 -11 0 -22 -3
-25 -8 -6 -11 -161 -59 -231 -72 -33 -6 -87 -18 -120 -25 -213 -50 -588 -69
-789 -41 -151 22 -180 27 -276 55 -80 22 -160 39 -240 51 -109 15 -161 30
-235 70 -33 18 -82 44 -108 59 -58 30 -83 62 -91 115 l-6 38 37 -29 c21 -16
56 -37 78 -47z m2232 -132 c-12 -15 -37 -33 -56 -41 -19 -8 -62 -34 -95 -57
-34 -23 -81 -48 -106 -55 -25 -7 -55 -17 -67 -22 -13 -5 -33 -13 -45 -18 -93
-37 -282 -88 -392 -106 -67 -11 -307 -14 -406 -4 -180 17 -285 30 -350 45
-110 26 -262 51 -360 60 -121 11 -317 99 -362 163 -35 49 -35 58 0 33 51 -37
179 -91 238 -102 33 -5 97 -16 144 -24 47 -8 112 -22 145 -30 200 -54 417 -83
595 -81 151 2 299 15 306 26 3 5 9 7 13 5 8 -6 195 21 236 34 37 11 75 19 140
27 28 3 76 19 107 34 32 16 65 29 73 29 19 0 74 27 93 46 7 8 22 14 32 14 10
0 42 11 72 25 67 31 73 31 45 -1z m-5928 -32 c51 -53 95 -76 321 -167 63 -26
134 -51 158 -56 24 -5 48 -12 54 -15 13 -8 121 -22 233 -30 44 -3 143 -15 220
-26 157 -24 364 -28 480 -9 39 7 131 18 205 26 200 21 470 86 550 131 14 8 70
37 126 64 55 26 106 56 113 64 22 27 32 18 25 -21 -10 -52 -86 -121 -173 -157
-36 -16 -79 -34 -96 -41 -32 -14 -151 -42 -300 -71 -49 -9 -148 -30 -220 -46
-160 -36 -320 -48 -473 -37 -65 5 -133 10 -152 10 -19 1 -64 7 -100 15 -122
24 -255 42 -360 49 -127 7 -190 20 -252 51 -26 13 -74 34 -105 45 -32 12 -62
25 -67 30 -6 5 -17 9 -25 9 -25 1 -128 55 -164 87 -24 21 -36 42 -40 70 -4 23
-10 48 -13 57 -11 28 8 17 55 -32z m9277 -43 c-16 -37 -57 -79 -76 -79 -6 0
-24 -6 -38 -14 -48 -26 -156 -65 -222 -82 -36 -9 -69 -19 -75 -23 -13 -10
-195 -31 -300 -36 -44 -2 -143 -8 -220 -14 -186 -14 -177 -14 -440 -6 -206 7
-311 19 -346 41 -6 3 -38 12 -71 20 -33 8 -69 21 -81 29 -27 19 -15 19 21 1
27 -14 86 -21 240 -31 45 -3 95 -10 110 -16 31 -12 239 -3 312 13 25 5 88 11
140 13 317 12 538 48 720 115 103 39 333 110 338 105 1 -1 -4 -17 -12 -36z
m-9241 -129 c7 -11 34 -24 180 -82 55 -22 123 -50 152 -64 52 -24 135 -37 328
-49 50 -3 126 -14 170 -25 207 -49 647 -55 800 -11 17 5 71 17 120 26 50 9
106 20 125 25 73 18 142 30 169 30 15 0 36 7 47 15 10 8 33 15 51 15 17 0 34
4 37 9 3 5 16 11 28 14 13 2 32 8 43 12 l20 7 -20 -14 c-11 -8 -49 -27 -85
-42 -36 -15 -74 -31 -85 -36 -11 -5 -36 -15 -55 -23 -46 -19 -82 -35 -100 -46
-88 -50 -205 -80 -340 -85 -58 -3 -163 -8 -235 -11 -77 -4 -162 -2 -210 4 -44
6 -132 18 -195 26 -63 9 -131 20 -151 25 -20 6 -61 12 -90 15 -45 3 -173 24
-254 40 -11 3 -54 9 -95 15 -218 32 -286 61 -355 149 -48 64 -60 100 -26 81
11 -5 23 -15 26 -20z m-2586 -172 c-10 -55 -18 -70 -63 -116 -93 -96 -242
-184 -449 -266 -70 -28 -195 -63 -257 -72 -19 -3 -60 -9 -90 -14 -30 -5 -107
-14 -170 -20 -183 -19 -280 -29 -355 -40 -131 -18 -260 -22 -460 -12 -263 14
-413 36 -490 72 -33 15 -71 31 -85 35 -54 15 -166 59 -181 72 -8 7 -18 13 -21
13 -8 0 -180 108 -193 121 -10 10 -37 130 -31 136 2 2 18 -20 35 -49 38 -61
106 -119 183 -155 97 -46 372 -114 513 -127 39 -4 79 -9 90 -12 29 -7 93 -12
240 -19 72 -4 133 -9 137 -11 20 -12 454 31 538 53 55 15 165 37 360 73 146
27 227 45 284 65 51 17 229 108 256 130 8 7 37 25 64 40 59 34 109 86 132 138
9 20 19 35 21 33 3 -2 -1 -33 -8 -68z m7337 -8 c8 0 14 7 14 15 0 8 9 15 20
15 11 0 20 -7 20 -15 0 -8 7 -15 15 -15 8 0 15 7 15 15 0 8 9 15 20 15 11 0
20 -7 20 -15 0 -8 7 -15 15 -15 8 0 15 6 15 13 0 7 9 13 20 13 11 0 20 -6 20
-13 0 -7 7 -13 15 -13 8 0 15 7 15 15 0 8 8 15 18 15 21 0 52 -62 34 -68 -17
-5 -15 -32 2 -32 9 0 12 -7 9 -20 -3 -11 -9 -20 -14 -20 -5 0 -9 -7 -9 -15 0
-8 7 -15 15 -15 9 0 15 -9 15 -21 0 -15 -5 -19 -15 -15 -10 4 -15 -1 -15 -14
0 -11 7 -20 15 -20 8 0 15 -7 15 -15 0 -8 -7 -15 -15 -15 -8 0 -15 -7 -15 -15
0 -8 5 -15 10 -15 6 0 10 -9 10 -20 0 -11 -4 -20 -10 -20 -5 0 -10 -7 -10 -15
0 -8 5 -15 10 -15 6 0 10 -9 10 -20 0 -11 -4 -20 -10 -20 -5 0 -10 -7 -10 -15
0 -8 4 -15 9 -15 5 0 11 -9 14 -20 3 -13 0 -20 -9 -20 -8 0 -14 -7 -14 -15 0
-8 6 -15 14 -15 9 0 14 -9 13 -20 -1 -11 -7 -20 -14 -20 -7 0 -13 -7 -13 -16
0 -10 6 -14 15 -10 11 4 15 -1 15 -19 0 -16 -6 -25 -15 -25 -8 0 -15 -7 -15
-15 0 -8 7 -15 15 -15 16 0 10 -30 -9 -42 -6 -4 -5 -12 3 -22 9 -11 10 -20 1
-36 -8 -15 -8 -25 -1 -34 6 -7 8 -16 4 -20 -4 -3 -8 -52 -9 -109 -3 -163 -3
-157 -18 -151 -19 7 -32 -16 -15 -27 11 -6 11 -11 1 -21 -9 -9 -12 -9 -12 0 0
7 -7 12 -15 12 -18 0 -20 -26 -2 -34 6 -3 0 -4 -16 -1 -19 4 -29 1 -33 -10 -8
-20 -30 -19 -39 3 -6 16 -7 16 -21 -2 -14 -19 -15 -19 -44 9 -28 27 -29 31
-14 42 9 6 13 17 9 23 -5 8 -11 8 -20 0 -10 -8 -14 -1 -19 29 -3 22 -3 47 0
55 3 9 1 23 -5 30 -9 11 -9 19 1 36 9 14 10 23 2 28 -16 11 -25 42 -11 39 7
-1 12 5 12 13 0 8 -6 14 -12 13 -19 -4 -16 28 5 43 16 13 16 15 0 25 -23 13
-25 51 -2 42 12 -4 15 -1 12 13 -2 10 -10 18 -16 16 -17 -3 -15 14 3 32 19 18
19 36 1 36 -9 0 -12 7 -9 20 3 11 9 20 14 20 5 0 9 7 9 15 0 8 -4 15 -10 15
-5 0 -10 9 -10 20 0 11 5 20 10 20 6 0 10 7 10 15 0 8 -7 15 -15 15 -8 0 -15
9 -15 20 0 11 7 20 15 20 8 0 15 5 15 11 0 6 -7 17 -15 25 -8 9 -15 20 -15 25
0 5 7 9 15 9 8 0 15 7 15 16 0 9 -6 14 -13 11 -16 -6 -16 -7 -21 106 -3 69 -1
86 8 78 7 -6 16 -8 19 -4 13 12 7 23 -14 23 -12 0 -17 4 -13 11 3 6 0 22 -7
37 -11 19 -11 26 -2 29 7 3 11 16 9 31 -2 15 -1 21 1 15 2 -7 11 -13 19 -13z
m3707 6 c9 -7 17 -20 17 -29 0 -8 -8 -18 -17 -22 -17 -6 -17 -7 0 -19 21 -16
22 -30 1 -47 -14 -12 -14 -14 2 -26 12 -9 14 -16 6 -25 -6 -8 -9 -54 -7 -116
2 -57 -1 -105 -7 -108 -5 -4 -5 -10 1 -17 5 -7 8 -41 6 -77 -1 -36 1 -72 6
-81 6 -11 4 -21 -6 -29 -11 -9 -12 -16 -2 -31 9 -15 9 -23 0 -39 -11 -16 -10
-21 3 -28 15 -8 15 -11 0 -35 -10 -14 -13 -28 -8 -31 13 -8 -10 -76 -25 -76
-15 0 -17 -27 -3 -32 14 -4 -11 -68 -27 -68 -7 0 -13 -7 -13 -15 0 -8 -7 -15
-15 -15 -9 0 -18 -7 -21 -15 -8 -19 -40 -19 -48 0 -3 8 -12 12 -21 9 -11 -5
-14 -2 -9 10 4 10 -1 18 -14 23 -12 5 -21 11 -22 15 0 4 -3 15 -7 24 -3 9 -1
25 6 36 9 15 9 20 -4 24 -20 8 -19 34 3 50 16 13 16 14 -3 19 -28 8 -29 41 -2
49 l22 7 -22 16 c-13 8 -23 21 -23 28 0 7 10 16 23 19 21 6 21 7 5 20 -22 16
-23 42 -2 50 8 3 12 11 9 17 -4 6 -13 8 -20 5 -16 -6 -27 42 -19 83 4 20 11
28 20 24 8 -3 14 1 14 11 0 9 -6 16 -14 16 -20 0 -24 44 -22 220 1 85 -3 158
-8 161 -5 4 -6 14 -3 23 7 16 22 18 154 20 34 1 65 4 69 9 11 10 27 8 47 -7z
m-11073 -167 c0 -23 -53 -129 -64 -129 -6 0 -27 -13 -46 -28 -44 -36 -193
-126 -246 -148 -21 -9 -95 -36 -164 -59 -114 -38 -152 -49 -290 -85 -25 -6
-85 -15 -133 -20 -48 -5 -93 -13 -99 -17 -7 -3 -179 -7 -382 -8 -446 -2 -569
11 -756 77 -30 11 -95 26 -145 34 -192 28 -244 47 -342 120 -17 13 -38 24 -45
24 -28 0 -48 26 -57 73 -4 26 -5 47 -1 47 4 0 37 -20 73 -43 70 -46 121 -73
202 -105 28 -11 88 -36 135 -55 78 -32 120 -45 175 -53 11 -2 45 -7 75 -12 30
-6 58 -8 62 -6 3 2 39 0 80 -6 101 -14 438 -20 523 -10 39 5 93 11 120 15 28
3 102 10 165 15 63 6 169 17 235 26 158 21 156 21 185 28 14 3 36 8 50 10 128
23 233 59 397 137 45 22 86 39 92 39 5 0 14 6 18 13 4 6 28 25 53 42 25 16 55
39 67 50 43 40 48 44 56 45 4 0 7 -5 7 -11z m3806 -49 c8 0 11 -6 8 -15 -4
-10 0 -15 11 -15 11 0 15 5 11 15 -4 11 1 15 19 15 16 0 25 -6 25 -15 0 -8 7
-15 15 -15 8 0 15 7 15 15 0 8 9 15 20 15 11 0 20 -7 20 -15 0 -8 5 -15 10
-15 16 0 11 -37 -6 -44 -13 -5 -14 -9 -4 -21 7 -8 10 -26 6 -40 -4 -14 -1 -35
5 -47 9 -17 9 -23 0 -26 -14 -5 -15 -32 -1 -32 14 0 12 -28 -2 -33 -10 -3 -10
-10 2 -31 12 -24 12 -28 0 -36 -13 -8 -13 -13 -2 -30 7 -11 9 -26 5 -33 -4 -7
-8 -39 -9 -72 -2 -106 -3 -115 -18 -109 -8 3 -17 0 -21 -6 -4 -7 1 -13 13 -17
13 -3 18 -11 15 -24 -3 -10 -10 -17 -17 -16 -6 1 -11 -5 -11 -13 0 -8 6 -14
13 -12 7 1 12 -8 12 -23 0 -14 -5 -24 -11 -23 -6 2 -14 -3 -16 -9 -3 -7 2 -13
11 -13 20 0 21 -36 1 -44 -8 -3 -15 -10 -15 -16 0 -5 7 -10 15 -10 20 0 19
-19 -1 -42 -15 -16 -15 -18 -1 -24 16 -6 12 -33 -7 -46 -6 -4 -5 -12 4 -23 11
-13 11 -21 3 -35 -7 -10 -9 -27 -6 -39 3 -12 0 -28 -7 -36 -7 -8 -10 -15 -6
-15 3 0 -3 -9 -14 -20 -16 -16 -25 -18 -40 -10 -11 6 -30 8 -42 5 -26 -6 -38
1 -55 32 -11 19 -10 21 2 17 9 -4 15 0 15 10 0 9 -7 16 -15 16 -8 0 -15 8 -15
18 0 10 -5 23 -12 30 -8 8 -8 15 1 26 10 11 9 19 -1 37 -10 17 -10 23 0 26 14
6 16 33 2 33 -14 0 -12 37 3 43 9 3 9 7 0 17 -8 9 -9 20 -2 37 5 14 6 29 3 34
-11 18 6 79 21 79 8 0 15 7 15 15 0 8 -7 15 -15 15 -8 0 -15 9 -15 21 0 11 4
18 9 14 16 -9 22 13 9 34 -9 16 -9 23 3 37 11 13 11 18 2 21 -19 7 -16 40 5
48 15 6 16 7 1 18 -29 22 -37 129 -8 112 5 -4 9 3 9 15 0 12 -4 18 -10 15 -5
-3 -10 3 -10 14 0 10 6 21 13 24 9 3 9 10 -3 31 -12 23 -12 29 0 36 12 7 12
13 0 36 -12 21 -12 28 -2 31 6 3 12 11 12 18 0 7 -6 15 -12 18 -10 3 -10 9 1
29 7 15 10 32 6 39 -6 9 -3 10 9 6 10 -4 24 -7 32 -7z m-4011 -236 c-22 -19
-65 -48 -95 -63 -30 -15 -77 -41 -105 -57 -27 -17 -57 -33 -65 -37 -8 -4 -22
-11 -30 -16 -25 -15 -98 -48 -215 -97 -125 -52 -213 -67 -371 -65 -79 1 -104
-2 -114 -14 -10 -12 -35 -14 -144 -10 -72 3 -147 8 -166 12 -19 3 -44 7 -55 8
-135 12 -207 20 -215 25 -12 7 -60 10 -120 8 -102 -3 -132 -2 -180 4 -89 11
-235 51 -279 76 -26 14 -53 29 -61 34 -8 4 -35 17 -60 28 -25 11 -72 40 -105
64 -33 25 -65 45 -71 45 -15 1 -50 41 -36 41 6 0 13 -4 16 -9 3 -4 32 -24 65
-44 61 -36 135 -55 291 -76 41 -6 101 -19 133 -30 64 -22 145 -42 252 -62 99
-18 803 -20 903 -2 41 7 94 13 119 13 24 0 65 6 91 14 26 7 90 24 142 36 173
42 436 147 475 190 10 11 23 20 29 20 6 -1 -7 -17 -29 -36z"/>
<path d="M10919 9601 c-25 -17 -52 -39 -61 -48 -23 -27 -48 -99 -48 -139 0
-19 -4 -33 -8 -30 -5 3 0 -45 10 -107 11 -62 22 -130 26 -152 13 -79 3 -205
-22 -275 -9 -25 -16 -58 -16 -73 0 -25 -36 -149 -59 -202 -5 -11 -14 -40 -21
-65 -7 -25 -19 -54 -25 -65 -24 -40 -46 -139 -47 -209 -2 -96 26 -179 75 -228
33 -34 42 -38 89 -38 40 0 61 6 90 26 33 24 88 84 88 98 0 3 15 29 33 58 74
117 102 252 112 533 3 99 10 212 15 250 6 39 10 77 11 85 0 8 7 47 14 85 39
192 34 310 -14 405 -38 73 -86 112 -148 117 -41 4 -55 0 -94 -26z m161 -47
c17 -15 42 -48 55 -74 43 -85 42 -189 -5 -440 -25 -129 -30 -195 -30 -375 0
-227 -34 -373 -121 -516 -67 -110 -126 -156 -185 -145 -54 11 -84 56 -103 155
-17 89 -8 141 61 336 33 94 65 193 70 220 5 28 19 84 30 125 29 106 33 225 13
335 -27 140 -29 206 -10 272 9 32 24 67 33 77 54 61 139 74 192 30z"/>
<path d="M2675 9701 c-46 -27 -66 -68 -55 -116 12 -54 42 -76 99 -74 59 3 97
22 121 62 47 76 3 148 -88 146 -26 0 -60 -8 -77 -18z m134 -42 c15 -17 17 -27
10 -52 -11 -38 -23 -51 -52 -53 -12 -1 -35 -5 -51 -9 -24 -7 -33 -4 -48 15
-18 23 -24 66 -10 86 26 38 119 47 151 13z"/>
<path d="M2862 9303 c-47 -31 -54 -61 -23 -102 41 -54 161 -15 161 52 0 77
-61 99 -138 50z"/>
<path d="M3383 9229 c-31 -15 -48 -33 -63 -64 -24 -50 -20 -81 16 -120 20 -21
32 -25 81 -25 101 0 173 58 173 141 0 81 -107 116 -207 68z m145 -25 c40 -28
24 -93 -33 -132 -27 -19 -42 -23 -81 -18 -26 3 -52 10 -57 15 -13 13 -10 76 4
103 23 43 124 62 167 32z"/>
<path d="M2811 8505 c-76 -27 -105 -127 -56 -191 46 -60 140 -55 208 11 33 32
37 41 37 89 0 60 -12 79 -59 95 -42 14 -85 12 -130 -4z m119 -30 c34 -17 37
-24 32 -76 -4 -33 -11 -44 -42 -65 -68 -45 -134 -34 -150 26 -16 60 7 102 67
120 42 12 61 12 93 -5z"/>
<path d="M2688 8070 c-44 -34 -43 -111 1 -125 52 -16 101 29 101 93 0 21 -7
32 -25 40 -36 16 -48 15 -77 -8z"/>
<path d="M7964 8651 c-62 -38 -78 -74 -85 -196 -5 -84 -14 -133 -38 -205 -38
-115 -41 -185 -9 -241 39 -69 122 -89 178 -43 49 41 127 165 145 230 10 32 21
64 25 69 11 13 25 120 22 165 -4 56 -32 142 -58 178 -47 62 -121 79 -180 43z
m127 -48 c62 -52 88 -153 69 -261 -24 -130 -119 -315 -185 -358 -34 -22 -89
-2 -109 40 -25 52 -19 116 19 232 29 87 35 120 35 191 0 92 16 142 54 168 33
24 80 18 117 -12z"/>
<path d="M12166 7053 c-29 -29 -34 -75 -30 -319 4 -309 16 -443 40 -461 26
-19 43 1 24 30 -10 16 -14 63 -16 167 -1 80 -4 179 -7 220 -2 41 -1 109 2 150
4 41 2 87 -2 103 -12 35 -1 77 19 77 9 0 14 7 12 17 -3 19 -29 29 -42 16z"/>
<path d="M11859 7048 c-1 -2 -3 -32 -4 -66 -2 -35 -8 -69 -14 -75 -6 -6 -11
-46 -11 -93 0 -68 -6 -97 -36 -180 -19 -54 -39 -103 -43 -109 -10 -13 -46
-109 -60 -160 -6 -23 -20 -51 -32 -63 -25 -28 -19 -58 9 -43 36 19 71 86 72
133 0 17 11 45 51 133 48 105 79 200 79 243 0 26 7 93 16 148 18 106 15 134
-11 134 -8 0 -16 -1 -16 -2z"/>
<path d="M12016 7041 c-3 -5 -2 -37 3 -72 6 -46 4 -78 -6 -119 -21 -85 -45
-249 -44 -305 1 -58 -22 -149 -65 -252 -11 -26 -11 -33 0 -42 16 -14 32 3 46
46 5 15 17 52 28 80 25 66 37 127 33 173 -3 47 16 188 39 280 11 41 18 86 16
100 -2 14 -4 46 -5 73 -1 39 -4 47 -20 47 -11 0 -22 -4 -25 -9z"/>
<path d="M12285 6990 c-3 -5 -1 -19 5 -31 7 -11 13 -79 14 -152 3 -135 3 -136
66 -327 20 -60 33 -107 36 -130 5 -44 17 -61 43 -58 34 4 41 42 12 58 -12 6
-21 21 -21 33 0 12 -11 55 -24 97 -59 182 -66 216 -72 339 -3 79 -11 135 -20
153 -15 29 -28 35 -39 18z"/>
<path d="M16755 6563 c-154 -11 -282 -73 -315 -154 -10 -24 -9 -32 10 -58 11
-17 30 -37 41 -45 20 -13 19 -15 -21 -47 -101 -81 -121 -104 -151 -168 -17
-36 -36 -76 -42 -89 -20 -42 -14 -189 12 -272 35 -113 49 -139 115 -209 114
-119 225 -171 365 -171 79 0 200 -29 231 -55 30 -25 96 -37 191 -34 88 4 101
7 194 51 88 42 114 49 220 62 176 21 259 63 343 173 42 55 77 134 97 218 16
71 20 244 6 273 -4 9 -21 44 -37 76 -20 41 -44 70 -76 95 -27 19 -48 38 -48
41 0 3 13 11 29 17 37 14 81 82 81 126 0 46 -20 64 -140 122 -168 81 -384 45
-510 -85 -70 -72 -107 -85 -196 -71 -80 12 -94 23 -94 71 0 32 -6 44 -37 69
-59 49 -154 72 -268 64z m146 -44 c30 -7 64 -23 82 -39 l31 -28 -104 -6 c-58
-3 -168 -3 -245 1 l-140 8 54 28 c77 41 223 57 322 36z m819 0 c74 -11 187
-56 210 -84 11 -13 -7 -14 -146 -9 -88 3 -172 9 -189 14 -39 12 -115 15 -137
5 -10 -4 -23 -5 -30 -3 -21 7 148 81 197 86 11 1 54 -3 95 -9z m-547 -200 c23
-1 70 1 104 6 l62 8 18 -31 c20 -35 38 -45 125 -68 66 -17 230 -22 304 -10 36
6 46 3 102 -34 82 -55 122 -131 129 -249 3 -44 2 -88 -2 -98 -4 -10 -9 -37
-11 -60 -8 -94 -100 -248 -181 -301 -54 -36 -167 -63 -353 -84 -8 -1 -53 -22
-100 -47 -84 -45 -86 -45 -185 -45 -86 0 -108 3 -160 26 -111 48 -158 59 -262
63 -129 5 -198 34 -287 117 -17 16 -33 28 -37 28 -15 0 -76 97 -88 140 -8 25
-20 67 -28 94 -46 147 5 325 117 413 104 82 88 77 244 74 131 -2 146 -1 216
25 41 14 88 37 103 50 l28 23 50 -19 c27 -11 68 -21 92 -21z"/>
<path d="M16974 5495 c-10 -24 2 -42 45 -70 37 -22 49 -25 118 -21 107 5 200
51 177 87 -9 15 -40 10 -66 -11 -46 -36 -215 -40 -202 -5 4 10 -3 18 -21 25
-36 14 -45 13 -51 -5z"/>
<path d="M4455 6559 c-16 -3 -43 -14 -60 -23 -16 -9 -42 -16 -57 -16 -16 0
-28 -4 -28 -8 0 -14 58 -52 102 -68 48 -17 128 -10 128 11 0 22 -27 37 -52 29
-26 -9 -59 -6 -71 5 -13 13 62 43 89 37 19 -5 24 -2 24 13 0 22 -31 30 -75 20z"/>
<path d="M1480 6195 c-12 -15 -11 -43 11 -188 8 -59 8 -103 0 -175 -6 -53 -16
-142 -22 -197 -6 -55 -20 -125 -30 -155 -26 -76 -26 -75 -5 -75 26 0 53 75 66
182 10 89 12 98 30 213 13 81 7 278 -9 309 -9 16 -10 31 -2 52 8 24 7 30 -8
39 -14 7 -22 6 -31 -5z"/>
<path d="M1822 6199 c-19 -7 -21 -12 -13 -28 6 -11 14 -21 19 -23 21 -8 102
-200 102 -241 0 -12 13 -49 28 -82 58 -123 75 -185 77 -280 1 -82 3 -90 20
-90 17 0 20 8 23 55 3 75 -15 179 -45 253 -14 34 -28 67 -32 72 -9 11 -37 104
-46 150 -7 31 -92 212 -103 219 -4 2 -17 0 -30 -5z"/>
<path d="M1258 6190 c-12 -7 -18 -31 -23 -86 -6 -57 -16 -91 -40 -137 -18 -34
-35 -82 -39 -107 -8 -63 -43 -201 -72 -290 -26 -78 -75 -164 -103 -180 -13 -7
-14 -11 -3 -22 17 -17 37 -3 79 50 33 44 78 170 113 319 37 160 42 178 67 221
15 26 29 74 35 115 5 40 14 77 19 83 14 17 -13 45 -33 34z"/>
<path d="M1384 6192 c-7 -4 -12 -66 -13 -178 -2 -156 -5 -181 -31 -272 -16
-55 -31 -120 -35 -144 -15 -110 -28 -151 -58 -185 -19 -21 -16 -43 5 -43 18 0
58 53 68 90 5 19 14 69 20 110 12 83 25 139 45 186 20 47 26 103 28 278 2 155
-2 176 -29 158z"/>
<path d="M1597 6188 c-2 -7 1 -22 7 -33 7 -13 11 -106 12 -270 0 -239 16 -460
34 -479 5 -5 16 -6 24 -3 17 7 21 37 7 53 -5 5 -12 52 -15 104 -4 52 -10 120
-15 150 -5 32 -5 78 0 110 5 30 8 98 8 150 -1 84 -6 125 -24 208 -6 24 -30 30
-38 10z"/>
<path d="M1703 6183 c17 -58 37 -182 46 -278 11 -107 30 -192 74 -325 13 -40
21 -88 20 -123 -1 -31 4 -60 9 -64 17 -10 38 27 38 68 0 35 -30 151 -50 194
-17 35 -48 187 -55 265 -3 41 -11 100 -17 130 -6 30 -13 75 -17 100 -5 37 -10
46 -29 48 -19 3 -23 0 -19 -15z"/>
</g>
</svg>
